<svg xmlns="http://www.w3.org/2000/svg" xmlns:xlink="http://www.w3.org/1999/xlink" width="500" zoomAndPan="magnify" viewBox="0 0 375 374.999991" height="500" preserveAspectRatio="xMidYMid meet" version="1.0"><defs><g/><clipPath id="31c2d1a482"><path d="M 77.621094 8.457031 L 297.378906 8.457031 L 297.378906 228.210938 L 77.621094 228.210938 Z M 77.621094 8.457031 " clip-rule="nonzero"/></clipPath><clipPath id="19302d3709"><path d="M 187.5 8.457031 C 126.816406 8.457031 77.621094 57.652344 77.621094 118.335938 C 77.621094 179.019531 126.816406 228.210938 187.5 228.210938 C 248.183594 228.210938 297.378906 179.019531 297.378906 118.335938 C 297.378906 57.652344 248.183594 8.457031 187.5 8.457031 Z M 187.5 8.457031 " clip-rule="nonzero"/></clipPath><clipPath id="8c6486c9d3"><path d="M 128.53125 104 L 246 104 L 246 186.9375 L 128.53125 186.9375 Z M 128.53125 104 " clip-rule="nonzero"/></clipPath><clipPath id="66ceaf747d"><path d="M 119.769531 52.636719 L 255.519531 52.636719 L 255.519531 118.636719 L 119.769531 118.636719 Z M 119.769531 52.636719 " clip-rule="nonzero"/></clipPath></defs><rect x="-37.5" width="450" fill="#ffffff" y="-37.499999" height="449.999989" fill-opacity="1"/><rect x="-37.5" width="450" fill="#ffffff" y="-37.499999" height="449.999989" fill-opacity="1"/><g clip-path="url(#31c2d1a482)"><g clip-path="url(#19302d3709)"><path fill="#ffffff" d="M 77.621094 8.457031 L 297.378906 8.457031 L 297.378906 228.210938 L 77.621094 228.210938 Z M 77.621094 8.457031 " fill-opacity="1" fill-rule="nonzero"/></g></g><g clip-path="url(#8c6486c9d3)"><path fill="#ffde59" d="M 161.816406 164.597656 C 160.375 162.914062 157.726562 160.105469 156.976562 162.058594 C 156.730469 162.683594 156.160156 162.914062 155.542969 162.640625 C 154.015625 161.953125 148.214844 158.042969 148.09375 161.472656 C 148.074219 161.960938 147.664062 162.5 147.121094 162.445312 C 143.75 162.105469 140.660156 160.578125 138.398438 158.007812 C 137.707031 157.222656 137.066406 156.414062 136.765625 155.410156 C 135.914062 156.578125 134.675781 157.277344 133.078125 158.25 C 130.878906 159.585938 129.835938 162.335938 133.070312 163.03125 C 134.34375 163.308594 135.609375 163.40625 136.910156 163.417969 C 137.453125 163.425781 137.863281 163.859375 137.882812 164.390625 C 138.039062 168.089844 146.480469 164.648438 148.390625 164.03125 C 152.925781 162.554688 157.300781 164.410156 161.816406 164.597656 Z M 160.484375 145.296875 C 160.269531 145.296875 160.046875 145.304688 159.828125 145.304688 C 156.277344 145.308594 152.359375 145.308594 148.726562 144.53125 C 148.066406 146.753906 147.523438 149 145.246094 150.121094 C 143.777344 150.84375 142.054688 150.820312 140.558594 151.546875 C 140.007812 151.8125 139.457031 152.078125 138.902344 152.34375 C 141.496094 152.144531 143.785156 150.820312 146.636719 150.777344 C 150.84375 150.710938 154.703125 151.28125 158.664062 149.640625 C 158.625 149.40625 158.617188 149.167969 158.664062 148.894531 C 158.921875 147.421875 159.558594 146.25 160.484375 145.296875 Z M 184.332031 144.105469 C 182.75 144.257812 181.175781 144.40625 179.585938 144.542969 C 178.550781 144.628906 177.507812 144.691406 176.460938 144.765625 C 177.652344 146.4375 179.277344 147.851562 181.511719 146.367188 C 182.523438 145.691406 183.339844 144.796875 184.332031 144.105469 Z M 197.324219 149.441406 C 198.617188 149.582031 199.964844 149.894531 201.144531 149.363281 C 197.855469 147.804688 195.144531 145.34375 192.015625 143.511719 C 191.945312 143.46875 191.878906 143.417969 191.828125 143.363281 C 190.425781 143.492188 189.027344 143.628906 187.625 143.773438 C 188.523438 144.066406 189.34375 144.578125 189.882812 145.140625 C 191.046875 146.378906 191.859375 148.394531 193.621094 148.816406 C 194.835938 149.109375 196.078125 149.308594 197.324219 149.441406 Z M 207.511719 156.675781 C 207.234375 156.460938 206.953125 156.222656 206.683594 155.949219 C 206.023438 155.289062 205.820312 154.113281 205.734375 153.234375 C 205.695312 152.8125 205.59375 150.925781 204.898438 150.164062 C 204.4375 150.183594 203.980469 150.164062 203.519531 150.101562 C 203.429688 150.160156 203.335938 150.21875 203.230469 150.292969 C 202.785156 150.660156 202.449219 150.914062 201.953125 151.210938 C 200.132812 152.328125 196.785156 151.382812 194.84375 151.046875 C 193.382812 150.789062 192.222656 150.503906 191.019531 149.585938 C 189.785156 148.660156 189.386719 146.820312 187.964844 146.105469 C 184.96875 144.597656 184.675781 146.992188 182.492188 148.046875 C 181.273438 148.632812 180.175781 148.960938 178.800781 148.851562 C 176.667969 148.679688 175.269531 146.644531 174.210938 144.914062 C 170.769531 145.109375 167.3125 145.21875 163.859375 145.261719 C 163.851562 145.277344 163.835938 145.285156 163.824219 145.296875 C 161.640625 146.386719 160.121094 147.902344 161.304688 150.375 C 161.535156 150.839844 161.761719 151.164062 161.675781 151.683594 C 161.386719 153.464844 160.878906 155.921875 163.453125 156.351562 C 164.613281 156.542969 165.769531 156.339844 166.882812 156 C 168.730469 155.445312 170.578125 154.582031 172.511719 154.355469 C 174.355469 154.132812 176.023438 154.792969 177.800781 155.175781 C 182.90625 156.292969 186.691406 152.023438 191.574219 152.519531 C 194.878906 152.863281 197.402344 153.929688 200.789062 153.167969 C 202.476562 152.785156 203.503906 152.921875 204.867188 153.976562 C 205.191406 154.230469 205.234375 154.828125 205.023438 155.160156 C 204.117188 156.535156 206.058594 156.558594 207.511719 156.675781 Z M 210.917969 164.324219 C 209.761719 163.058594 208.386719 162.480469 206.527344 163.792969 C 205.582031 164.46875 204.582031 164.582031 203.53125 164.046875 C 203.207031 163.886719 203.101562 163.542969 203.027344 163.226562 C 202.941406 162.886719 201.414062 161.941406 201.164062 161.714844 C 198.847656 159.632812 194.226562 159.585938 193.125 163.03125 C 192.960938 163.527344 192.449219 163.859375 191.925781 163.710938 C 189.796875 163.101562 189.65625 163.039062 188.96875 164.828125 C 188.785156 165.292969 188.578125 165.691406 188.34375 166.074219 C 192.21875 165.867188 196.0625 165.460938 199.957031 165.558594 C 203.335938 165.644531 207.710938 166.167969 210.917969 164.324219 Z M 209.542969 160.910156 C 209.015625 159.75 208.351562 158.601562 207.058594 158.496094 C 206.023438 158.414062 204.976562 158.386719 203.972656 158.101562 C 202.351562 157.648438 202.351562 156.285156 202.859375 155.082031 C 201.371094 154.746094 198.757812 155.644531 197.441406 155.625 C 196.007812 155.597656 194.640625 155.011719 193.261719 154.730469 C 189.882812 154.039062 187.417969 155.574219 184.335938 156.578125 C 181.613281 157.46875 179.3125 157.585938 176.554688 156.871094 C 173.515625 156.097656 171.695312 156.488281 168.796875 157.433594 C 165.878906 158.394531 159.667969 159.328125 159.277344 154.5 C 159.1875 153.382812 159.761719 152.398438 159.46875 151.398438 C 155.535156 152.992188 151.972656 152.644531 147.730469 152.703125 C 144.558594 152.75 141.832031 154.078125 138.902344 154.285156 C 138.101562 157.25 143.519531 159.710938 146.285156 160.355469 C 147.210938 156.167969 152.527344 159.015625 155.613281 160.527344 C 157.71875 157.3125 161.597656 161.4375 163.621094 163.738281 C 163.75 163.757812 163.875 163.785156 163.988281 163.875 C 168.847656 167.625 176.507812 166.761719 182.292969 166.5 C 184.703125 166.386719 186.671875 165.867188 187.339844 163.371094 C 187.464844 162.921875 187.613281 162.253906 188.003906 161.925781 C 189.078125 161.042969 190.359375 161.253906 191.613281 161.59375 C 192.515625 159.722656 194.167969 158.550781 196.417969 158.421875 C 199.425781 158.246094 200.78125 159.023438 203.027344 160.773438 C 203.707031 161.300781 204.300781 162.246094 205.246094 162.171875 C 206.015625 162.117188 207.058594 160.898438 207.972656 160.695312 C 208.480469 160.59375 209.011719 160.6875 209.542969 160.910156 Z M 221.460938 164.859375 C 223.195312 166.558594 225.882812 166.628906 228.398438 166.238281 C 226.375 165.433594 224.183594 163.917969 221.945312 164.683594 C 221.78125 164.734375 221.621094 164.800781 221.460938 164.859375 Z M 230.058594 150.445312 C 228.929688 149.980469 227.398438 149.808594 226.703125 149.347656 C 224.941406 148.15625 223.890625 146.339844 222.164062 145.132812 C 222.101562 145.085938 222.046875 145.039062 222 144.984375 C 221.441406 145.070312 220.882812 145.167969 220.332031 145.285156 C 216.417969 146.09375 213.007812 147.941406 209.261719 149.199219 C 208.503906 149.449219 207.757812 149.6875 207.003906 149.859375 C 207.1875 150.179688 207.316406 150.503906 207.371094 150.789062 C 207.71875 152.667969 207.992188 157.019531 211.183594 155.863281 C 212.59375 155.351562 213.53125 154.269531 214.597656 153.28125 C 216.308594 151.714844 218.113281 150.761719 220.488281 151.355469 C 223.980469 152.234375 226.757812 151.898438 230.058594 150.445312 Z M 232.871094 144.289062 C 232.871094 144.269531 232.878906 144.253906 232.878906 144.234375 C 230.101562 144.371094 227.296875 144.421875 224.519531 144.679688 C 225.117188 145.324219 225.65625 146.003906 226.335938 146.613281 C 227.636719 147.792969 228.9375 148.066406 230.515625 148.617188 C 230.867188 148.742188 231.191406 148.882812 231.496094 149.050781 C 232.375 147.589844 232.84375 146.082031 232.871094 144.289062 Z M 233.484375 142.261719 C 233.382812 141.878906 233.234375 141.511719 233.0625 141.160156 C 229.277344 142.777344 224.792969 142.003906 220.785156 141.789062 C 214.136719 141.445312 207.308594 142.410156 200.664062 142.714844 C 198.753906 142.800781 196.839844 142.9375 194.933594 143.089844 C 197.132812 144.636719 199.21875 146.394531 201.660156 147.480469 C 205.417969 149.171875 209.296875 147.203125 212.78125 145.691406 C 219.46875 142.792969 226.363281 142.695312 233.484375 142.261719 Z M 229.25 176.644531 C 230.472656 173.867188 234.660156 171.375 233.714844 168.21875 C 233.648438 167.992188 233.660156 167.789062 233.726562 167.613281 C 232.285156 167.011719 230.386719 168.183594 228.824219 168.277344 C 225.601562 168.46875 221.808594 168.21875 219.578125 165.652344 C 218.765625 165.984375 217.945312 166.292969 217.0625 166.425781 C 215.601562 166.640625 214.152344 166.203125 212.917969 165.390625 C 209.773438 167.707031 205.445312 167.617188 201.703125 167.542969 C 196.515625 167.433594 191.394531 167.984375 186.214844 168.101562 C 184.417969 168.859375 181.714844 168.4375 180.03125 168.484375 C 174.929688 168.613281 168.828125 169.074219 164.238281 166.375 C 164.101562 166.441406 163.960938 166.488281 163.816406 166.5 C 159.34375 166.902344 154.667969 164.417969 150.296875 165.496094 C 148.296875 165.984375 146.394531 166.804688 144.398438 167.296875 C 143.761719 167.460938 143.035156 167.613281 142.289062 167.734375 C 142.582031 169.703125 144.390625 170.546875 144.820312 172.398438 C 145.273438 174.40625 144.867188 176.671875 146.160156 178.414062 C 148.84375 182.027344 155.023438 183.433594 159.226562 184.070312 C 168.789062 185.515625 179.046875 184.765625 188.65625 184.105469 C 194.027344 183.730469 199.375 183.214844 204.738281 182.804688 C 209.183594 182.464844 213.6875 182.625 218.125 182.089844 C 221.089844 181.738281 224.402344 181.207031 227.050781 179.699219 C 228.425781 178.917969 228.671875 177.988281 229.25 176.644531 Z M 238.425781 149.851562 C 237.042969 148.746094 235.722656 147.617188 234.621094 146.277344 C 234.347656 147.742188 233.796875 149.089844 232.960938 150.375 C 232.972656 150.398438 232.988281 150.429688 233 150.457031 C 234.835938 150.464844 236.691406 150.398438 238.425781 149.851562 Z M 235.035156 135.5625 C 235.121094 133.765625 234.851562 132.042969 234.523438 130.285156 C 232.851562 122.691406 225.996094 117.597656 219.734375 113.683594 C 211.992188 108.84375 202.933594 106.554688 193.859375 106.175781 C 185.195312 105.824219 175.949219 106.476562 167.691406 109.304688 C 158.953125 112.300781 151.101562 117.53125 145.992188 125.359375 C 143.929688 128.523438 140.652344 133.566406 141.695312 137.574219 C 142.320312 140.007812 144.554688 141.28125 146.828125 141.964844 C 152.230469 143.582031 158.058594 143.453125 163.640625 143.289062 C 171.46875 143.046875 179.210938 142.667969 187.011719 141.871094 C 197.09375 140.847656 207.285156 140.199219 217.414062 139.804688 C 221.355469 139.648438 225.335938 140.566406 229.269531 140.109375 C 230.394531 139.980469 231.554688 139.726562 232.539062 139.238281 C 232.707031 139.011719 232.972656 138.859375 233.257812 138.816406 C 234.265625 138.125 234.96875 137.09375 235.035156 135.5625 Z M 235.246094 163.851562 C 237.785156 163.050781 241.855469 163.644531 241.457031 159.710938 C 241.007812 155.289062 234.207031 154.398438 230.917969 152.914062 C 230.679688 152.804688 230.535156 152.597656 230.480469 152.363281 C 228.097656 153.375 225.363281 154.257812 222.808594 153.921875 C 220.25 153.582031 218.179688 152.554688 215.976562 154.660156 C 215.097656 155.503906 214.203125 156.527344 213.121094 157.109375 C 211.984375 157.71875 210.898438 157.914062 209.863281 157.738281 C 210.605469 158.585938 211.085938 159.789062 211.523438 160.675781 C 213.394531 164.46875 216.191406 164.910156 219.835938 163.398438 C 222.011719 162.503906 223.90625 162.335938 226.113281 163.144531 C 227.683594 163.730469 229.113281 164.765625 230.863281 164.773438 C 232.449219 164.773438 233.757812 164.320312 235.246094 163.851562 Z M 242.617188 165.875 C 243.953125 165.03125 243.148438 164.242188 242.238281 163.515625 C 241.527344 164.445312 240.480469 165.003906 238.972656 165.097656 C 237.582031 165.1875 236.246094 165.605469 234.914062 165.992188 C 236.132812 166.902344 237.152344 168.429688 238.324219 169.273438 C 238.671875 168.421875 239.351562 167.734375 240.214844 167.210938 C 241 166.738281 241.84375 166.363281 242.617188 165.875 Z M 243.121094 161.757812 C 244.449219 162.8125 246.460938 164.703125 244.945312 166.46875 C 243.707031 167.90625 239.945312 168.542969 240.003906 170.714844 C 240.023438 171.335938 239.367188 171.828125 238.773438 171.65625 C 237.363281 171.226562 236.625 170.300781 235.847656 169.390625 C 235.824219 172.289062 233.027344 173.464844 231.605469 176.230469 C 231 177.414062 230.6875 179.175781 229.710938 180.148438 C 228.441406 181.410156 226.582031 182.152344 224.886719 182.667969 C 219.417969 184.355469 213.796875 184.257812 208.132812 184.53125 C 201.632812 184.847656 195.152344 185.632812 188.65625 186.046875 C 182.449219 186.441406 176.199219 186.644531 169.976562 186.671875 C 164.453125 186.691406 158.671875 186.496094 153.398438 184.671875 C 149.667969 183.390625 145.472656 181.878906 143.792969 178.027344 C 142.769531 175.679688 143.390625 173.328125 141.742188 171.1875 C 140.941406 170.148438 140.511719 169.148438 140.359375 167.917969 C 138.375 167.945312 136.578125 167.378906 136.078125 165.34375 C 133.417969 165.242188 128.492188 164.671875 128.84375 161.410156 C 129.292969 157.222656 133.5625 156.714844 135.316406 153.855469 C 135.273438 153.839844 135.230469 153.835938 135.1875 153.820312 C 134.492188 153.574219 134.113281 152.410156 134.957031 152.039062 C 137.039062 151.136719 139.148438 149.675781 141.347656 149.128906 C 142.722656 148.796875 145.03125 148.632812 145.75 147.175781 C 146.246094 146.175781 146.535156 145.109375 146.847656 144.042969 C 146.03125 143.800781 145.226562 143.5 144.464844 143.136719 C 132 137.265625 146.609375 119.785156 153.027344 114.867188 C 166.023438 104.921875 184.480469 102.5 200.355469 104.847656 C 208.589844 106.066406 216.179688 108.804688 223.027344 113.5625 C 228.902344 117.648438 234.785156 122.445312 236.402344 129.769531 C 237.007812 133.03125 237.929688 137.917969 234.742188 140.21875 C 235.210938 141.140625 235.492188 142.035156 235.628906 143.160156 C 235.667969 143.460938 235.511719 143.707031 235.28125 143.882812 C 236.742188 146.167969 238.886719 147.753906 241.011719 149.441406 C 241.496094 149.824219 241.332031 150.703125 240.820312 150.96875 C 238.921875 151.941406 236.894531 152.253906 234.832031 152.351562 C 238.984375 153.835938 244.089844 155.703125 243.347656 160.621094 C 243.292969 161.019531 243.199219 161.390625 243.101562 161.746094 C 243.109375 161.75 243.117188 161.75 243.121094 161.757812 " fill-opacity="1" fill-rule="nonzero"/></g><path fill="#ffde59" d="M 238.785156 157.828125 L 238.996094 158.140625 L 238.382812 158.539062 C 238.332031 158.570312 238.308594 158.5625 238.226562 158.601562 C 238.132812 158.640625 238.046875 158.6875 237.957031 158.730469 C 237.933594 158.742188 237.910156 158.757812 237.882812 158.769531 C 238.046875 159.035156 238.179688 159.339844 238.207031 159.734375 C 238.226562 160.273438 237.96875 160.792969 237.617188 161.097656 C 237.261719 161.390625 236.878906 161.558594 236.507812 161.628906 C 235.777344 161.792969 235.109375 161.660156 234.613281 161.441406 C 234.355469 161.34375 234.164062 161.175781 233.992188 161.050781 C 233.84375 160.898438 233.714844 160.773438 233.636719 160.640625 C 233.492188 160.375 233.457031 160.222656 233.519531 160.179688 C 233.667969 160.070312 234.042969 160.554688 234.859375 160.707031 C 235.257812 160.796875 235.769531 160.8125 236.253906 160.65625 C 236.5 160.585938 236.722656 160.449219 236.894531 160.308594 C 237.039062 160.144531 237.113281 159.980469 237.113281 159.789062 C 237.117188 159.523438 236.886719 159.191406 236.683594 158.898438 L 236.261719 158.285156 L 236.914062 158.054688 C 237.113281 157.984375 237.316406 157.90625 237.539062 157.816406 C 237.566406 157.808594 237.582031 157.796875 237.601562 157.789062 C 237.371094 157.558594 237.117188 157.386719 236.894531 157.285156 C 236.546875 157.113281 236.261719 157.039062 236.273438 156.9375 C 236.289062 156.851562 236.507812 156.71875 237.023438 156.761719 C 237.269531 156.78125 237.574219 156.851562 237.890625 157.011719 C 238.203125 157.1875 238.527344 157.460938 238.785156 157.828125 " fill-opacity="1" fill-rule="nonzero"/><path fill="#ffde59" d="M 232.871094 161.636719 C 232.898438 161.675781 232.800781 161.824219 232.523438 162.003906 C 232.242188 162.1875 231.753906 162.34375 231.140625 162.347656 C 230.523438 162.355469 229.792969 162.195312 229.03125 161.824219 C 228.449219 161.53125 227.839844 161.105469 227.328125 160.488281 C 226.957031 160.898438 226.546875 161.3125 226.003906 161.636719 C 225.292969 162.117188 224.273438 162.382812 223.328125 162.171875 C 222.6875 162.058594 222.132812 161.785156 221.632812 161.503906 C 221.136719 161.226562 220.691406 160.914062 220.273438 160.625 C 219.535156 160.109375 218.867188 159.640625 218.214844 159.289062 C 217.710938 159.789062 217.050781 160.117188 216.382812 160.046875 C 216 159.996094 215.664062 159.820312 215.429688 159.585938 C 215.195312 159.359375 215.078125 159.074219 215.007812 158.835938 C 214.890625 158.328125 215.035156 157.945312 215.117188 157.714844 C 215.234375 157.511719 215.320312 157.40625 215.363281 157.421875 C 215.488281 157.449219 215.242188 157.984375 215.511719 158.671875 C 215.65625 159 215.988281 159.300781 216.4375 159.308594 C 216.886719 159.308594 217.378906 158.980469 217.757812 158.449219 L 217.957031 158.160156 L 218.308594 158.304688 C 219.167969 158.652344 220.003906 159.199219 220.855469 159.757812 C 221.707031 160.292969 222.59375 160.921875 223.53125 161.097656 C 224.914062 161.410156 226.113281 160.375 226.976562 159.378906 L 227.457031 158.824219 L 227.792969 159.449219 C 228.179688 160.164062 228.820312 160.730469 229.425781 161.089844 C 230.050781 161.464844 230.667969 161.679688 231.175781 161.75 C 232.230469 161.914062 232.800781 161.519531 232.871094 161.636719 " fill-opacity="1" fill-rule="nonzero"/><path fill="#ffde59" d="M 232.570312 168.089844 L 232.457031 168.707031 C 232.265625 169.734375 231.886719 170.832031 231.160156 171.804688 C 230.441406 172.777344 229.414062 173.5625 228.269531 174.136719 C 227.117188 174.71875 225.859375 175.121094 224.566406 175.445312 C 223.246094 175.773438 221.953125 176.003906 220.550781 176.296875 C 220.273438 176.359375 219.992188 176.421875 219.71875 176.484375 C 219.433594 176.5625 219.148438 176.644531 218.867188 176.726562 C 218.566406 176.800781 218.269531 176.882812 217.96875 176.957031 C 217.660156 177.019531 217.308594 177.046875 216.984375 177.085938 L 216.964844 177.09375 L 216.921875 177.085938 C 216.308594 177.003906 215.746094 176.882812 215.300781 176.609375 C 213.945312 175.773438 212.519531 176.277344 211.183594 176.46875 C 210.617188 176.542969 210.015625 176.445312 209.488281 176.257812 C 209.09375 176.113281 208.746094 175.910156 208.417969 175.6875 C 207.882812 176.15625 207.269531 176.472656 206.691406 176.683594 C 205.980469 176.9375 205.292969 177.085938 204.652344 177.167969 C 203.367188 177.347656 202.253906 177.332031 201.347656 177.304688 C 199.523438 177.242188 198.507812 177.128906 198.507812 177.035156 C 198.507812 176.929688 199.542969 176.867188 201.339844 176.78125 C 202.234375 176.730469 203.320312 176.664062 204.53125 176.441406 C 205.710938 176.199219 207.117188 175.808594 208.058594 174.78125 L 208.324219 174.492188 L 208.664062 174.71875 C 209.023438 174.960938 209.398438 175.1875 209.792969 175.316406 C 210.195312 175.445312 210.605469 175.480469 211.054688 175.40625 C 211.917969 175.277344 213.003906 174.804688 214.230469 174.890625 C 214.597656 174.910156 214.929688 175.023438 215.179688 175.160156 C 215.429688 175.289062 215.636719 175.433594 215.84375 175.550781 C 216.238281 175.785156 216.617188 175.9375 217.011719 176.003906 C 217.25 175.964844 217.484375 175.945312 217.738281 175.902344 C 218.011719 175.820312 218.289062 175.753906 218.5625 175.679688 C 218.855469 175.597656 219.148438 175.511719 219.433594 175.425781 C 219.742188 175.351562 220.066406 175.285156 220.382812 175.214844 C 223.046875 174.667969 225.699219 174.246094 227.8125 173.214844 C 228.863281 172.710938 229.765625 172.035156 230.40625 171.226562 C 230.90625 170.59375 231.238281 169.882812 231.457031 169.175781 C 230.480469 169.371094 229.570312 169.613281 228.746094 169.8125 C 227.75 170.078125 226.847656 170.226562 226.109375 170.320312 C 225.363281 170.375 224.785156 170.390625 224.390625 170.335938 C 223.996094 170.304688 223.792969 170.273438 223.792969 170.226562 C 223.792969 170.183594 224 170.136719 224.382812 170.089844 C 224.765625 170.0625 225.328125 169.972656 226.035156 169.84375 C 226.746094 169.6875 227.589844 169.484375 228.566406 169.164062 C 229.550781 168.859375 230.671875 168.488281 231.964844 168.21875 L 232.570312 168.089844 " fill-opacity="1" fill-rule="nonzero"/><path fill="#ffde59" d="M 231.570312 134.5625 C 231.632812 134.582031 231.488281 135.285156 230.769531 136.332031 C 230.398438 136.835938 229.902344 137.464844 229.066406 137.925781 C 228.652344 138.15625 228.105469 138.246094 227.527344 138.175781 C 227.066406 138.117188 226.628906 138.019531 226.246094 137.660156 C 225.902344 138.035156 225.484375 138.164062 225 138.300781 C 224.390625 138.484375 223.722656 138.46875 223.117188 138.320312 C 221.945312 138.046875 220.871094 137.417969 219.800781 137.183594 L 219.65625 137.257812 L 219.359375 137.417969 C 219.148438 137.53125 218.945312 137.640625 218.71875 137.742188 C 218.496094 137.84375 218.269531 137.953125 218.011719 138.035156 C 217.746094 138.109375 217.503906 138.230469 217.023438 138.148438 L 217.015625 138.148438 C 216.667969 138.109375 216.417969 138.019531 216.167969 137.929688 C 215.886719 137.828125 215.628906 137.707031 215.363281 137.59375 C 214.941406 137.402344 214.527344 137.191406 214.117188 136.984375 C 213.136719 137.6875 211.953125 138.039062 210.789062 138.203125 C 208.550781 138.488281 206.4375 138.246094 204.464844 138.019531 C 202.488281 137.789062 200.644531 137.476562 198.957031 137.46875 C 198.195312 137.441406 197.441406 137.726562 196.703125 138 C 195.960938 138.28125 195.253906 138.578125 194.503906 138.75 C 193.777344 138.925781 192.96875 138.960938 192.300781 138.644531 C 191.777344 138.402344 191.433594 138.007812 191.164062 137.625 C 190.84375 137.945312 190.480469 138.191406 190.074219 138.253906 C 189.945312 138.261719 189.816406 138.285156 189.699219 138.265625 C 189.589844 138.242188 189.480469 138.214844 189.378906 138.191406 C 189.1875 138.105469 189.019531 138.007812 188.894531 137.910156 C 188.773438 137.800781 188.671875 137.703125 188.578125 137.617188 C 188.507812 137.53125 188.449219 137.449219 188.40625 137.386719 C 188.3125 137.257812 188.277344 137.175781 188.292969 137.15625 C 188.3125 137.140625 188.386719 137.175781 188.515625 137.277344 C 188.578125 137.328125 188.652344 137.386719 188.742188 137.457031 C 188.839844 137.515625 188.941406 137.585938 189.066406 137.660156 C 189.3125 137.777344 189.636719 137.9375 189.984375 137.820312 C 190.339844 137.722656 190.671875 137.414062 190.984375 136.984375 L 191.210938 136.667969 L 191.457031 137.019531 C 191.742188 137.414062 192.082031 137.828125 192.574219 138.015625 C 193.0625 138.214844 193.667969 138.171875 194.308594 137.988281 C 194.960938 137.808594 195.640625 137.503906 196.382812 137.191406 C 197.117188 136.890625 197.957031 136.523438 198.953125 136.523438 C 200.75 136.484375 202.628906 136.769531 204.585938 136.972656 C 206.53125 137.175781 208.601562 137.378906 210.636719 137.121094 C 211.796875 136.957031 212.898438 136.597656 213.722656 135.925781 L 214 135.707031 L 214.308594 135.863281 C 214.832031 136.136719 215.320312 136.394531 215.820312 136.625 C 216.058594 136.738281 216.304688 136.855469 216.546875 136.945312 C 216.777344 137.042969 217.015625 137.101562 217.148438 137.121094 L 217.25 137.222656 C 217.28125 137.113281 217.277344 137.132812 217.28125 137.132812 C 217.28125 137.140625 217.289062 137.140625 217.308594 137.132812 C 217.34375 137.132812 217.371094 137.132812 217.414062 137.128906 C 217.492188 137.113281 217.589844 137.082031 217.683594 137.054688 C 217.878906 136.992188 218.085938 136.90625 218.289062 136.816406 C 218.488281 136.726562 218.691406 136.621094 218.890625 136.515625 L 219.203125 136.359375 L 219.367188 136.285156 L 219.46875 136.238281 C 219.5 136.222656 219.488281 136.222656 219.554688 136.203125 C 219.609375 136.1875 219.675781 136.183594 219.742188 136.175781 L 219.78125 136.175781 L 219.828125 136.183594 C 220.558594 136.324219 221.15625 136.609375 221.726562 136.855469 C 222.289062 137.101562 222.824219 137.332031 223.332031 137.46875 C 223.851562 137.613281 224.34375 137.652344 224.785156 137.542969 C 225.234375 137.4375 225.613281 137.183594 225.953125 136.886719 L 226.238281 136.625 L 226.5 136.886719 C 226.847656 137.230469 227.230469 137.46875 227.625 137.542969 C 228.023438 137.613281 228.433594 137.542969 228.792969 137.367188 C 229.511719 137.042969 230.046875 136.503906 230.433594 136.0625 C 231.21875 135.160156 231.488281 134.527344 231.570312 134.5625 " fill-opacity="1" fill-rule="nonzero"/><path fill="#ffde59" d="M 226.574219 121.308594 L 226.710938 121.683594 L 226.34375 121.882812 C 226.078125 122.039062 225.804688 122.214844 225.480469 122.308594 C 224.96875 122.519531 224.421875 122.546875 223.949219 122.527344 C 223.710938 122.484375 223.484375 122.460938 223.28125 122.390625 C 223.082031 122.308594 222.890625 122.246094 222.742188 122.152344 C 222.585938 122.058594 222.457031 121.96875 222.347656 121.875 C 222.246094 121.785156 222.171875 121.683594 222.109375 121.601562 C 222 121.441406 221.957031 121.328125 222.011719 121.273438 C 222.0625 121.214844 222.183594 121.214844 222.359375 121.261719 C 222.445312 121.28125 222.535156 121.316406 222.652344 121.34375 C 222.769531 121.371094 222.890625 121.398438 223.027344 121.4375 C 223.574219 121.558594 224.332031 121.578125 225.109375 121.28125 C 225.21875 121.253906 225.316406 121.207031 225.417969 121.164062 C 225.382812 121.070312 225.34375 121.007812 225.300781 120.976562 C 225.199219 120.890625 224.953125 120.84375 224.742188 120.832031 C 224.285156 120.8125 223.972656 120.757812 223.953125 120.625 C 223.933594 120.5 224.175781 120.328125 224.648438 120.160156 C 224.894531 120.09375 225.238281 119.976562 225.722656 120.164062 C 226.230469 120.402344 226.429688 120.886719 226.574219 121.308594 " fill-opacity="1" fill-rule="nonzero"/><path fill="#ffde59" d="M 219.605469 118.570312 C 220.5 118.789062 221.140625 119.203125 221.039062 119.492188 C 220.933594 119.777344 220.207031 119.847656 219.410156 119.648438 C 218.554688 119.496094 217.90625 119.136719 217.957031 118.84375 C 218.011719 118.542969 218.746094 118.421875 219.605469 118.570312 " fill-opacity="1" fill-rule="nonzero"/><path fill="#ffde59" d="M 219.003906 168.171875 C 219.496094 168.386719 219.753906 168.535156 219.742188 168.605469 C 219.726562 168.679688 219.417969 168.664062 218.882812 168.578125 C 218.617188 168.542969 218.296875 168.46875 217.945312 168.429688 C 217.769531 168.414062 217.59375 168.359375 217.371094 168.367188 C 217.261719 168.359375 217.152344 168.351562 217.042969 168.347656 L 216.867188 168.339844 C 216.859375 168.339844 216.828125 168.339844 216.820312 168.339844 L 216.730469 168.351562 C 216.289062 168.394531 215.875 168.488281 215.457031 168.761719 C 215.246094 168.886719 214.996094 169.074219 214.691406 169.230469 C 214.546875 169.320312 214.347656 169.375 214.171875 169.441406 C 213.976562 169.511719 213.851562 169.511719 213.6875 169.558594 C 212.980469 169.648438 212.265625 169.65625 211.558594 169.558594 C 210.84375 169.496094 210.230469 169.367188 209.476562 169.347656 L 209.203125 169.328125 L 209.066406 169.320312 L 209.039062 169.203125 L 209.023438 169.148438 L 208.992188 169.210938 C 208.816406 169.222656 208.636719 169.292969 208.464844 169.3125 C 208.113281 169.339844 207.773438 169.394531 207.433594 169.421875 C 206.757812 169.460938 206.105469 169.558594 205.476562 169.625 C 204.234375 169.769531 203.070312 169.863281 202.101562 169.925781 C 200.183594 170 198.996094 169.871094 198.992188 169.734375 C 198.992188 169.570312 200.183594 169.429688 202.054688 169.164062 C 202.992188 169.015625 204.109375 168.832031 205.355469 168.640625 C 205.976562 168.542969 206.628906 168.441406 207.332031 168.386719 C 208.820312 168.257812 210.203125 168.332031 211.6875 168.503906 C 212.339844 168.613281 212.972656 168.605469 213.511719 168.566406 C 213.652344 168.542969 213.847656 168.53125 213.9375 168.484375 C 214.046875 168.4375 214.152344 168.429688 214.269531 168.367188 C 214.507812 168.265625 214.730469 168.113281 215.007812 167.972656 C 215.566406 167.660156 216.207031 167.5625 216.710938 167.582031 L 216.820312 167.578125 C 216.914062 167.582031 216.886719 167.589844 216.933594 167.589844 L 217.105469 167.613281 C 217.21875 167.632812 217.328125 167.652344 217.433594 167.671875 C 217.644531 167.691406 217.859375 167.777344 218.054688 167.828125 C 218.453125 167.9375 218.746094 168.066406 219.003906 168.171875 " fill-opacity="1" fill-rule="nonzero"/><path fill="#ffde59" d="M 217.769531 114.597656 C 218.105469 115.195312 217.9375 115.984375 217.492188 116.476562 C 217.058594 116.988281 216.355469 117.214844 215.792969 117.117188 C 215.21875 117.039062 214.824219 116.746094 214.566406 116.496094 C 214.046875 115.945312 213.960938 115.53125 214.066406 115.4375 C 214.191406 115.324219 214.539062 115.613281 215.035156 115.878906 C 215.539062 116.15625 216.238281 116.261719 216.667969 115.753906 C 217.101562 115.210938 216.867188 114.800781 216.316406 114.574219 C 215.804688 114.367188 215.371094 114.304688 215.363281 114.140625 C 215.355469 114.011719 215.734375 113.773438 216.5 113.820312 C 216.855469 113.863281 217.417969 114 217.769531 114.597656 " fill-opacity="1" fill-rule="nonzero"/><path fill="#ffde59" d="M 215.785156 119.464844 C 215.875 119.796875 215.796875 120.105469 215.675781 120.355469 C 215.554688 120.605469 215.378906 120.804688 215.171875 120.96875 C 214.757812 121.308594 214.261719 121.4375 213.832031 121.449219 C 213.402344 121.453125 213.035156 121.328125 212.761719 121.195312 C 212.230469 120.910156 212.046875 120.582031 212.121094 120.464844 C 212.207031 120.328125 212.542969 120.410156 213.003906 120.464844 C 213.457031 120.507812 214.054688 120.46875 214.488281 120.117188 C 214.710938 119.957031 214.796875 119.714844 214.804688 119.691406 C 214.8125 119.683594 214.839844 119.667969 214.785156 119.613281 C 214.734375 119.566406 214.644531 119.515625 214.546875 119.484375 C 214.144531 119.355469 213.761719 119.328125 213.742188 119.164062 C 213.722656 119.035156 213.976562 118.777344 214.625 118.71875 C 214.785156 118.707031 214.980469 118.71875 215.207031 118.808594 C 215.429688 118.894531 215.703125 119.132812 215.785156 119.464844 " fill-opacity="1" fill-rule="nonzero"/><path fill="#ffde59" d="M 209.644531 116.613281 C 211.027344 117.054688 212.210938 117.5625 212.121094 117.871094 C 212.039062 118.144531 210.808594 118.136719 209.289062 117.648438 C 208.527344 117.382812 207.882812 116.992188 207.480469 116.578125 C 207.125 116.183594 207.003906 115.871094 207.097656 115.761719 C 207.195312 115.640625 207.519531 115.769531 207.957031 115.96875 C 208.367188 116.136719 208.964844 116.378906 209.644531 116.613281 " fill-opacity="1" fill-rule="nonzero"/><path fill="#ffde59" d="M 209.039062 111.398438 C 210.054688 111.859375 210.761719 112.390625 210.664062 112.683594 C 210.566406 112.96875 209.605469 112.855469 208.601562 112.402344 C 207.675781 111.988281 206.832031 111.519531 206.933594 111.222656 C 207.023438 110.949219 207.941406 110.917969 209.039062 111.398438 " fill-opacity="1" fill-rule="nonzero"/><path fill="#ffde59" d="M 206.480469 112.71875 C 206.589844 112.839844 206.636719 112.933594 206.609375 113.003906 C 206.585938 113.078125 206.480469 113.113281 206.316406 113.113281 C 206.234375 113.117188 206.136719 113.113281 206.035156 113.089844 C 205.929688 113.085938 205.832031 113.113281 205.730469 113.113281 C 205.527344 113.117188 205.289062 113.179688 205.09375 113.285156 C 204.894531 113.398438 204.738281 113.589844 204.675781 113.804688 C 204.609375 114.023438 204.632812 114.179688 204.730469 114.289062 C 204.839844 114.398438 205.050781 114.515625 205.273438 114.535156 C 205.496094 114.597656 205.703125 114.601562 205.851562 114.632812 C 206.003906 114.664062 206.105469 114.71875 206.125 114.789062 C 206.144531 114.863281 206.085938 114.949219 205.949219 115.046875 C 205.804688 115.148438 205.601562 115.269531 205.28125 115.3125 C 204.988281 115.378906 204.539062 115.367188 204.082031 115.058594 C 203.988281 114.972656 203.859375 114.882812 203.789062 114.757812 C 203.722656 114.628906 203.628906 114.496094 203.601562 114.351562 C 203.523438 114.058594 203.539062 113.753906 203.621094 113.472656 C 203.804688 112.914062 204.238281 112.519531 204.691406 112.359375 C 205.144531 112.214844 205.554688 112.234375 205.871094 112.351562 C 206.027344 112.410156 206.179688 112.460938 206.269531 112.527344 C 206.351562 112.597656 206.425781 112.664062 206.480469 112.71875 " fill-opacity="1" fill-rule="nonzero"/><path fill="#ffde59" d="M 204.628906 117.382812 C 205.152344 117.992188 205.253906 118.429688 205.152344 118.519531 C 205.035156 118.628906 204.660156 118.316406 204.128906 117.972656 C 203.855469 117.808594 203.519531 117.632812 203.199219 117.597656 C 202.882812 117.5625 202.640625 117.675781 202.503906 117.9375 C 202.367188 118.210938 202.410156 118.523438 202.59375 118.730469 C 202.777344 118.945312 203.101562 119.09375 203.402344 119.164062 C 204.015625 119.308594 204.476562 119.328125 204.503906 119.492188 C 204.53125 119.621094 204.128906 119.894531 203.328125 119.9375 C 202.933594 119.945312 202.390625 119.878906 201.882812 119.449219 C 201.371094 119.027344 201.15625 118.136719 201.535156 117.441406 C 201.707031 117.089844 202.011719 116.808594 202.367188 116.671875 C 202.722656 116.527344 203.097656 116.527344 203.394531 116.605469 C 203.996094 116.765625 204.363281 117.101562 204.628906 117.382812 " fill-opacity="1" fill-rule="nonzero"/><path fill="#ffde59" d="M 200.820312 111.5 C 201.789062 111.667969 202.375 112.28125 202.234375 112.519531 C 202.078125 112.804688 201.402344 112.714844 200.644531 112.582031 C 199.972656 112.464844 199.160156 112.34375 199.15625 112.035156 C 199.148438 111.757812 199.753906 111.359375 200.820312 111.5 " fill-opacity="1" fill-rule="nonzero"/><path fill="#ffde59" d="M 200.734375 108.191406 C 201.257812 108.304688 201.515625 108.667969 201.421875 108.953125 C 201.332031 109.246094 200.890625 109.34375 200.515625 109.257812 C 200.425781 109.246094 200.339844 109.214844 200.269531 109.167969 C 200.191406 109.121094 200.085938 109.082031 200.023438 109.03125 C 199.882812 108.921875 199.796875 108.777344 199.800781 108.628906 C 199.808594 108.480469 199.910156 108.347656 200.066406 108.261719 C 200.210938 108.15625 200.457031 108.128906 200.734375 108.191406 " fill-opacity="1" fill-rule="nonzero"/><path fill="#ffde59" d="M 199.394531 118.945312 C 199.976562 118.945312 200.449219 119.183594 200.449219 119.492188 C 200.449219 119.796875 199.976562 120.035156 199.394531 120.035156 C 198.816406 120.035156 198.34375 119.796875 198.34375 119.492188 C 198.34375 119.183594 198.816406 118.945312 199.394531 118.945312 " fill-opacity="1" fill-rule="nonzero"/><path fill="#ffde59" d="M 198.667969 114.789062 C 198.679688 115.085938 197.855469 115.289062 196.832031 115.195312 C 195.90625 114.996094 195.199219 114.601562 195.261719 114.304688 C 195.328125 114.003906 196.132812 113.929688 197.058594 114.128906 C 197.941406 114.1875 198.65625 114.488281 198.667969 114.789062 " fill-opacity="1" fill-rule="nonzero"/><path fill="#ffde59" d="M 196.71875 109.089844 C 197.226562 109.5 197.300781 110.125 197.167969 110.65625 C 197.03125 111.191406 196.644531 111.601562 196.253906 111.8125 C 195.867188 112.027344 195.484375 112.078125 195.1875 112.070312 C 194.589844 112.050781 194.28125 111.847656 194.292969 111.710938 C 194.300781 111.554688 194.640625 111.464844 195.078125 111.308594 C 195.503906 111.152344 195.996094 110.851562 196.105469 110.375 C 196.179688 110.136719 196.113281 109.914062 196.078125 109.867188 C 196.074219 109.851562 196.074219 109.824219 196.007812 109.808594 C 195.941406 109.804688 195.847656 109.808594 195.757812 109.84375 C 195.371094 109.972656 195.058594 110.199219 194.941406 110.089844 C 194.878906 110.035156 194.878906 109.933594 194.925781 109.777344 C 194.980469 109.628906 195.101562 109.402344 195.347656 109.1875 C 195.464844 109.078125 195.640625 108.964844 195.878906 108.90625 C 196.113281 108.84375 196.464844 108.890625 196.71875 109.089844 " fill-opacity="1" fill-rule="nonzero"/><path fill="#ffde59" d="M 194.769531 116.871094 C 194.8125 117.054688 194.878906 117.25 194.835938 117.433594 C 194.832031 117.523438 194.8125 117.625 194.789062 117.714844 C 194.757812 117.789062 194.71875 117.875 194.679688 117.953125 C 194.320312 118.585938 193.695312 118.808594 193.214844 118.851562 C 193.082031 118.855469 192.96875 118.859375 192.851562 118.855469 C 192.742188 118.835938 192.632812 118.816406 192.527344 118.796875 C 192.320312 118.769531 192.152344 118.695312 191.996094 118.613281 C 191.679688 118.492188 191.484375 118.304688 191.355469 118.175781 C 191.222656 118.039062 191.171875 117.933594 191.210938 117.871094 C 191.25 117.804688 191.367188 117.777344 191.542969 117.789062 C 191.714844 117.796875 191.9375 117.863281 192.210938 117.875 C 192.347656 117.890625 192.488281 117.914062 192.632812 117.898438 C 192.703125 117.898438 192.78125 117.898438 192.859375 117.898438 C 192.925781 117.875 192.996094 117.863281 193.074219 117.851562 C 193.347656 117.785156 193.621094 117.632812 193.714844 117.441406 C 193.785156 117.25 193.804688 117.214844 193.621094 117.085938 C 193.570312 117.058594 193.511719 117.035156 193.460938 117.007812 C 193.402344 116.980469 193.328125 116.972656 193.261719 116.960938 C 193.125 116.917969 192.988281 116.917969 192.859375 116.902344 C 192.613281 116.863281 192.339844 116.898438 192.164062 116.871094 C 191.988281 116.851562 191.878906 116.808594 191.859375 116.734375 C 191.84375 116.664062 191.910156 116.566406 192.054688 116.460938 C 192.210938 116.359375 192.390625 116.222656 192.75 116.136719 C 192.917969 116.09375 193.109375 116.046875 193.328125 116.054688 C 193.4375 116.054688 193.546875 116.046875 193.667969 116.066406 C 193.792969 116.09375 193.921875 116.128906 194.050781 116.167969 C 194.1875 116.214844 194.320312 116.328125 194.453125 116.421875 C 194.574219 116.535156 194.6875 116.699219 194.769531 116.871094 " fill-opacity="1" fill-rule="nonzero"/><path fill="#ffde59" d="M 193.804688 157.585938 C 193.804688 157.671875 193.226562 157.71875 192.242188 157.871094 C 191.996094 157.90625 191.722656 157.960938 191.441406 158.042969 C 191.300781 158.074219 191.191406 158.136719 191.046875 158.179688 C 190.984375 158.203125 190.90625 158.257812 190.828125 158.296875 L 190.710938 158.355469 C 190.710938 158.367188 190.667969 158.394531 190.648438 158.414062 C 190.425781 158.578125 190.304688 158.828125 190.257812 159.164062 C 190.230469 159.335938 190.238281 159.515625 190.246094 159.722656 C 190.25 159.832031 190.257812 159.945312 190.257812 160.054688 C 190.257812 160.125 190.265625 160.179688 190.246094 160.292969 C 190.230469 160.332031 190.210938 160.59375 189.9375 160.707031 C 189.113281 161.15625 188.085938 161.128906 187.171875 160.988281 C 186.5 160.886719 185.816406 160.730469 185.160156 160.6875 C 185.234375 160.914062 185.289062 161.152344 185.328125 161.410156 C 185.410156 161.941406 185.328125 162.613281 184.921875 163.132812 C 184.527344 163.644531 183.96875 163.917969 183.457031 164.078125 C 182.933594 164.25 182.40625 164.324219 181.878906 164.378906 C 180.609375 164.496094 179.347656 164.390625 178.289062 164.4375 L 178.242188 164.4375 C 177.746094 164.527344 177.25 164.609375 176.765625 164.699219 C 176.246094 164.78125 175.738281 164.859375 175.242188 164.921875 C 174.242188 165.058594 173.28125 165.148438 172.363281 165.140625 C 171.898438 165.140625 171.449219 165.121094 170.992188 165.011719 C 170.769531 164.960938 170.535156 164.894531 170.300781 164.746094 C 170.066406 164.632812 169.820312 164.308594 169.800781 163.988281 C 169.796875 163.835938 169.808594 163.691406 169.855469 163.574219 C 169.882812 163.445312 169.9375 163.347656 169.996094 163.253906 C 170.09375 163.058594 170.222656 162.921875 170.339844 162.765625 C 170.429688 162.667969 170.523438 162.574219 170.613281 162.484375 C 170.367188 162.417969 170.136719 162.324219 169.957031 162.195312 C 169.613281 161.96875 169.425781 161.703125 169.257812 161.5 C 168.953125 161.097656 168.796875 160.867188 168.839844 160.824219 C 168.882812 160.785156 169.113281 160.941406 169.496094 161.28125 C 169.691406 161.429688 169.910156 161.648438 170.195312 161.785156 C 170.488281 161.925781 170.84375 161.992188 171.273438 161.972656 L 172.007812 161.953125 L 171.480469 162.511719 C 171.277344 162.726562 171.074219 162.953125 170.882812 163.207031 C 170.707031 163.4375 170.542969 163.769531 170.570312 163.90625 C 170.597656 163.957031 170.59375 163.996094 170.722656 164.050781 C 170.824219 164.113281 170.988281 164.160156 171.164062 164.1875 C 171.511719 164.25 171.921875 164.257812 172.347656 164.242188 C 173.199219 164.203125 174.125 164.085938 175.09375 163.929688 C 175.582031 163.851562 176.078125 163.765625 176.582031 163.664062 C 176.835938 163.621094 177.097656 163.566406 177.355469 163.523438 L 177.753906 163.445312 L 177.949219 163.40625 C 178.023438 163.390625 178.074219 163.378906 178.195312 163.371094 L 178.242188 163.371094 C 179.480469 163.308594 180.609375 163.398438 181.78125 163.289062 C 182.710938 163.207031 183.667969 162.984375 184.066406 162.472656 C 184.472656 162.003906 184.265625 161.128906 183.933594 160.390625 L 183.632812 159.710938 L 184.355469 159.667969 C 185.503906 159.59375 186.464844 159.90625 187.328125 160.054688 C 188.140625 160.21875 188.863281 160.242188 189.453125 160.007812 C 189.453125 159.910156 189.453125 159.820312 189.453125 159.730469 C 189.460938 159.503906 189.472656 159.269531 189.519531 159.035156 C 189.605469 158.578125 189.882812 158.101562 190.269531 157.871094 C 190.324219 157.835938 190.347656 157.816406 190.425781 157.777344 L 190.550781 157.726562 C 190.625 157.6875 190.699219 157.652344 190.789062 157.625 C 190.972656 157.578125 191.160156 157.503906 191.320312 157.496094 C 191.644531 157.433594 191.9375 157.414062 192.195312 157.40625 C 193.238281 157.394531 193.804688 157.511719 193.804688 157.585938 " fill-opacity="1" fill-rule="nonzero"/><path fill="#ffde59" d="M 190.761719 107.4375 C 191.644531 107.667969 192.265625 108.046875 192.183594 108.304688 C 192.09375 108.597656 191.269531 108.65625 190.339844 108.457031 C 189.34375 108.3125 188.570312 107.953125 188.617188 107.660156 C 188.65625 107.410156 189.25 107.28125 190.011719 107.328125 C 190.089844 107.199219 190.210938 107.113281 190.425781 107.144531 C 190.621094 107.183594 190.726562 107.300781 190.761719 107.4375 " fill-opacity="1" fill-rule="nonzero"/><path fill="#ffde59" d="M 192.347656 179.144531 C 192.347656 179.21875 191.59375 179.292969 190.238281 179.355469 C 188.875 179.421875 186.921875 179.503906 184.480469 179.523438 C 183.269531 179.539062 181.941406 179.550781 180.507812 179.566406 C 179.082031 179.578125 177.542969 179.5 175.929688 179.46875 C 175.117188 179.441406 174.296875 179.414062 173.453125 179.390625 C 172.605469 179.324219 171.753906 179.253906 170.882812 179.1875 C 170.015625 179.117188 169.128906 179.039062 168.230469 178.96875 C 167.773438 178.925781 167.34375 178.898438 166.859375 178.84375 C 166.410156 178.796875 165.957031 178.753906 165.496094 178.707031 C 162.902344 178.5 160.355469 178.300781 157.96875 177.851562 C 156.773438 177.617188 155.613281 177.328125 154.53125 176.910156 C 153.578125 176.542969 152.664062 176.058594 151.933594 175.355469 C 151.128906 175.855469 150.210938 176.167969 149.304688 176.128906 C 148.277344 176.082031 147.34375 175.570312 146.792969 174.863281 C 146.214844 174.160156 145.992188 173.289062 146.089844 172.535156 C 146.167969 171.878906 146.453125 171.355469 146.765625 170.933594 C 146.058594 170.429688 145.546875 170.015625 145.175781 169.742188 C 144.742188 169.457031 144.5 169.300781 144.527344 169.253906 C 144.546875 169.21875 144.820312 169.285156 145.289062 169.507812 C 145.773438 169.742188 146.433594 170.183594 147.25 170.65625 L 147.480469 170.789062 L 147.316406 171.035156 C 147.03125 171.457031 146.757812 171.976562 146.71875 172.589844 C 146.679688 173.191406 146.886719 173.867188 147.351562 174.390625 C 147.820312 174.914062 148.535156 175.269531 149.332031 175.285156 C 150.128906 175.289062 150.964844 174.949219 151.707031 174.390625 L 152.042969 174.144531 L 152.328125 174.453125 C 152.949219 175.128906 153.886719 175.617188 154.878906 175.976562 C 155.894531 176.347656 157.003906 176.613281 158.15625 176.820312 C 160.476562 177.222656 162.980469 177.40625 165.59375 177.617188 C 172.988281 178.410156 179.625 178.679688 184.488281 178.753906 C 189.335938 178.878906 192.347656 178.988281 192.347656 179.144531 " fill-opacity="1" fill-rule="nonzero"/><path fill="#ffde59" d="M 189.835938 110.191406 C 190.324219 110.191406 190.726562 110.429688 190.726562 110.738281 C 190.726562 111.042969 190.324219 111.28125 189.835938 111.28125 C 189.34375 111.28125 188.941406 111.042969 188.941406 110.738281 C 188.941406 110.429688 189.34375 110.191406 189.835938 110.191406 " fill-opacity="1" fill-rule="nonzero"/><path fill="#ffde59" d="M 187.644531 114.140625 C 187.761719 114.421875 187.25 114.875 186.601562 115.167969 C 186.070312 115.394531 185.398438 115.699219 185.214844 115.4375 C 185.050781 115.210938 185.261719 114.609375 186.128906 114.179688 C 186.875 113.839844 187.527344 113.867188 187.644531 114.140625 " fill-opacity="1" fill-rule="nonzero"/><path fill="#ffde59" d="M 185.882812 118.71875 C 186.511719 119.050781 186.929688 119.523438 186.832031 119.816406 C 186.738281 120.097656 186.011719 120.027344 185.253906 119.621094 C 184.609375 119.171875 184.226562 118.601562 184.402344 118.355469 C 184.578125 118.109375 185.242188 118.273438 185.882812 118.71875 " fill-opacity="1" fill-rule="nonzero"/><path fill="#ffde59" d="M 186.085938 109.613281 C 186.1875 109.75 186.226562 109.859375 186.1875 109.925781 C 186.148438 109.988281 186.03125 110.003906 185.859375 109.980469 C 185.773438 109.964844 185.675781 109.9375 185.558594 109.898438 C 185.453125 109.894531 185.34375 109.894531 185.242188 109.878906 C 184.777344 109.832031 184.164062 110.007812 183.851562 110.542969 C 183.546875 111.085938 183.714844 111.390625 184.199219 111.605469 C 184.421875 111.710938 184.636719 111.765625 184.792969 111.828125 C 184.949219 111.886719 185.042969 111.957031 185.050781 112.035156 C 185.058594 112.113281 184.976562 112.179688 184.804688 112.25 C 184.628906 112.316406 184.375 112.390625 184.027344 112.359375 C 183.695312 112.34375 183.183594 112.199219 182.851562 111.691406 C 182.515625 111.171875 182.601562 110.464844 182.914062 109.980469 C 183.226562 109.476562 183.703125 109.136719 184.199219 109.027344 C 184.6875 108.914062 185.128906 108.988281 185.460938 109.136719 C 185.621094 109.21875 185.773438 109.304688 185.875 109.375 C 185.960938 109.464844 186.03125 109.546875 186.085938 109.613281 " fill-opacity="1" fill-rule="nonzero"/><path fill="#ffde59" d="M 185.539062 151.261719 C 185.566406 151.308594 185.390625 151.53125 184.953125 151.871094 C 184.742188 152.027344 184.449219 152.253906 183.972656 152.300781 C 183.632812 152.328125 183.289062 152.222656 182.957031 152.058594 C 182.808594 152.429688 182.625 152.820312 182.308594 153.207031 C 182.109375 153.460938 181.808594 153.726562 181.402344 153.839844 C 180.988281 153.964844 180.53125 153.875 180.191406 153.710938 C 179.488281 153.390625 178.972656 152.886719 178.433594 152.410156 C 178.167969 152.171875 177.902344 151.921875 177.628906 151.714844 C 177.492188 151.613281 177.355469 151.511719 177.226562 151.4375 C 176.914062 152.050781 176.441406 152.621094 175.792969 152.980469 C 174.988281 153.441406 174.035156 153.574219 173.136719 153.472656 C 172.703125 153.425781 172.277344 153.308594 171.882812 153.171875 C 171.054688 153.839844 170.039062 154.101562 169.132812 154.167969 C 168.113281 154.230469 167.15625 154.082031 166.28125 153.835938 L 165.464844 153.601562 L 166.066406 153.023438 C 166.339844 152.765625 166.519531 151.976562 167.023438 151.425781 C 166.535156 151.070312 165.9375 150.828125 165.417969 150.605469 C 164.746094 150.320312 164.128906 150.070312 163.679688 149.667969 C 163.578125 149.566406 163.484375 149.445312 163.410156 149.328125 C 163.363281 149.191406 163.28125 149.082031 163.292969 148.953125 C 163.246094 148.707031 163.328125 148.511719 163.375 148.363281 C 163.511719 148.117188 163.613281 148.007812 163.65625 148.019531 C 163.816406 148.011719 163.257812 148.769531 163.996094 149.292969 C 164.367188 149.550781 164.957031 149.738281 165.65625 149.960938 C 166.34375 150.199219 167.203125 150.40625 168.011719 151.117188 L 168.40625 151.464844 L 167.929688 151.792969 C 167.707031 151.949219 167.542969 152.171875 167.402344 152.492188 C 167.324219 152.648438 167.269531 152.832031 167.175781 153.03125 C 167.785156 153.132812 168.414062 153.171875 169.046875 153.117188 C 169.910156 153.042969 170.773438 152.765625 171.375 152.175781 L 171.632812 151.914062 L 171.96875 152.050781 C 172.375 152.222656 172.808594 152.335938 173.253906 152.382812 C 173.976562 152.464844 174.691406 152.355469 175.261719 152.039062 C 175.832031 151.730469 176.226562 151.199219 176.453125 150.601562 L 176.621094 150.164062 L 177.039062 150.261719 C 177.601562 150.394531 177.945312 150.667969 178.261719 150.925781 C 178.574219 151.183594 178.839844 151.445312 179.101562 151.695312 C 179.609375 152.1875 180.09375 152.664062 180.5625 152.910156 C 181.460938 153.472656 182.121094 152.253906 182.476562 151.46875 L 182.652344 151.078125 L 182.96875 151.320312 C 183.335938 151.59375 183.664062 151.777344 183.957031 151.792969 C 184.253906 151.8125 184.546875 151.675781 184.769531 151.566406 C 185.234375 151.347656 185.5 151.207031 185.539062 151.261719 " fill-opacity="1" fill-rule="nonzero"/><path fill="#ffde59" d="M 181.082031 113.433594 C 182.382812 113.433594 183.429688 113.671875 183.429688 113.976562 C 183.429688 114.285156 182.382812 114.523438 181.082031 114.523438 C 179.78125 114.523438 178.730469 114.285156 178.730469 113.976562 C 178.730469 113.671875 179.78125 113.433594 181.082031 113.433594 " fill-opacity="1" fill-rule="nonzero"/><path fill="#ffde59" d="M 180.203125 107.863281 C 181.277344 107.800781 182.140625 108 182.136719 108.304688 C 182.128906 108.613281 181.320312 108.894531 180.324219 108.953125 C 179.296875 109.078125 178.4375 108.925781 178.40625 108.628906 C 178.371094 108.332031 179.175781 107.988281 180.203125 107.863281 " fill-opacity="1" fill-rule="nonzero"/><path fill="#ffde59" d="M 180.835938 137.972656 C 180.875 138.082031 179.945312 138.457031 178.371094 139.226562 C 177.574219 139.605469 176.636719 140.125 175.445312 140.542969 C 174.253906 140.972656 172.816406 141.210938 171.253906 141.210938 L 171.230469 141.210938 L 171.195312 141.199219 C 170.734375 141.132812 170.273438 140.855469 169.976562 140.574219 C 169.699219 140.328125 169.515625 140.171875 169.320312 140.109375 C 169.269531 140.136719 169.160156 140.199219 169.074219 140.285156 C 168.910156 140.421875 168.746094 140.566406 168.578125 140.710938 C 168.480469 140.789062 168.386719 140.867188 168.230469 140.960938 C 168.203125 140.976562 168.167969 140.996094 168.101562 141.023438 C 168.039062 141.042969 168.039062 141.0625 167.882812 141.089844 C 167.816406 141.097656 167.753906 141.097656 167.691406 141.089844 C 167.609375 141.074219 167.644531 141.082031 167.617188 141.074219 L 167.597656 141.070312 L 167.582031 141.070312 L 167.5 141.035156 L 167.460938 141.023438 C 167.269531 140.960938 167.078125 140.878906 166.859375 140.824219 C 166.4375 140.6875 165.867188 140.523438 165.410156 140.089844 C 165.1875 139.882812 165.03125 139.648438 164.914062 139.410156 C 164.703125 139.578125 164.484375 139.722656 164.265625 139.859375 C 163.796875 140.136719 163.316406 140.355469 162.816406 140.539062 C 161.515625 141.035156 160.199219 141.300781 158.917969 141.464844 C 157.632812 141.621094 156.371094 141.660156 155.167969 141.5625 C 153.960938 141.464844 152.800781 141.246094 151.757812 140.75 C 151.246094 140.5 150.75 140.171875 150.382812 139.722656 C 150.167969 139.46875 150.019531 139.171875 149.921875 138.859375 C 149.636719 139.046875 149.339844 139.203125 149.019531 139.285156 C 148.460938 139.421875 147.882812 139.332031 147.453125 139.082031 C 147.015625 138.835938 146.699219 138.484375 146.523438 138.109375 C 146.417969 137.9375 146.382812 137.742188 146.308594 137.574219 C 146.285156 137.394531 146.246094 137.222656 146.234375 137.0625 C 146.179688 136.40625 146.375 135.921875 146.503906 135.617188 C 146.65625 135.339844 146.757812 135.203125 146.792969 135.214844 C 146.921875 135.25 146.511719 135.894531 146.683594 137.003906 C 146.773438 137.535156 147.105469 138.210938 147.75 138.507812 C 148.058594 138.65625 148.441406 138.6875 148.828125 138.570312 C 149.203125 138.449219 149.570312 138.175781 149.917969 137.84375 L 150.570312 137.203125 L 150.609375 138.117188 C 150.640625 138.882812 151.257812 139.527344 152.152344 139.902344 C 153.035156 140.292969 154.109375 140.476562 155.238281 140.542969 C 157.488281 140.660156 160.035156 140.394531 162.429688 139.519531 C 163.324219 139.183594 164.1875 138.722656 164.683594 138.117188 L 165.316406 137.375 L 165.636719 138.3125 C 165.769531 138.707031 165.90625 139.109375 166.152344 139.320312 C 166.378906 139.546875 166.734375 139.675781 167.175781 139.816406 C 167.363281 139.878906 167.5625 139.953125 167.765625 140.03125 C 167.8125 140.007812 167.867188 139.960938 167.929688 139.914062 C 168.09375 139.769531 168.269531 139.628906 168.441406 139.484375 C 168.652344 139.347656 168.800781 139.144531 169.328125 139.089844 L 169.378906 139.082031 L 169.425781 139.097656 C 169.554688 139.136719 169.691406 139.183594 169.816406 139.226562 C 169.925781 139.292969 170.046875 139.355469 170.144531 139.429688 C 170.339844 139.578125 170.488281 139.726562 170.617188 139.84375 C 170.871094 140.082031 171.074219 140.191406 171.332031 140.257812 C 172.769531 140.316406 174.074219 140.148438 175.207031 139.804688 C 176.34375 139.476562 177.332031 139.027344 178.152344 138.722656 C 179.8125 138.09375 180.808594 137.890625 180.835938 137.972656 " fill-opacity="1" fill-rule="nonzero"/><path fill="#ffde59" d="M 178.570312 116.035156 C 179.257812 116.183594 179.558594 116.4375 179.542969 116.570312 C 179.515625 116.726562 179.082031 116.742188 178.523438 116.808594 C 178.242188 116.835938 177.914062 116.898438 177.671875 117.035156 C 177.433594 117.175781 177.371094 117.320312 177.394531 117.542969 C 177.433594 117.785156 177.628906 117.980469 177.808594 118.027344 C 177.992188 118.082031 178.261719 117.992188 178.488281 117.863281 C 178.945312 117.589844 179.242188 117.292969 179.378906 117.382812 C 179.488281 117.453125 179.460938 117.890625 178.992188 118.449219 C 178.753906 118.714844 178.332031 119.070312 177.679688 119.023438 C 177.039062 118.980469 176.433594 118.441406 176.316406 117.734375 C 176.253906 117.382812 176.324219 116.988281 176.527344 116.6875 C 176.726562 116.386719 177.011719 116.203125 177.269531 116.105469 C 177.792969 115.925781 178.230469 115.96875 178.570312 116.035156 " fill-opacity="1" fill-rule="nonzero"/><path fill="#ffde59" d="M 174.234375 169.566406 C 177.207031 169.734375 179.054688 169.917969 179.054688 170.0625 C 179.054688 170.214844 177.207031 170.3125 174.203125 170.34375 C 173.457031 170.367188 172.632812 170.320312 171.761719 170.273438 C 170.878906 170.21875 169.9375 170.171875 168.945312 170.109375 C 168.453125 170.078125 167.941406 170.0625 167.421875 170.007812 C 166.910156 169.941406 166.378906 169.871094 165.839844 169.804688 C 164.765625 169.660156 163.65625 169.519531 162.511719 169.371094 C 160.9375 169.117188 159.453125 168.761719 158.027344 168.476562 C 157.671875 168.402344 157.316406 168.320312 156.976562 168.25 C 156.800781 168.210938 156.628906 168.175781 156.464844 168.140625 C 156.335938 168.113281 156.214844 168.054688 156.097656 168.003906 C 155.984375 167.953125 155.914062 167.886719 155.8125 167.828125 C 155.492188 167.582031 155.269531 167.359375 155.042969 167.203125 C 154.832031 167.050781 154.636719 167 154.429688 166.964844 C 154.191406 167.003906 153.960938 167.039062 153.785156 167.121094 C 153.683594 167.15625 153.621094 167.222656 153.53125 167.269531 C 153.464844 167.355469 153.390625 167.40625 153.308594 167.515625 C 153.234375 167.613281 153.136719 167.734375 153.035156 167.847656 C 152.9375 167.957031 152.734375 168.109375 152.605469 168.183594 L 152.4375 168.265625 L 152.347656 168.292969 L 152.328125 168.304688 L 152.253906 168.332031 L 152.25 168.339844 L 152.199219 168.347656 C 152.074219 168.378906 151.945312 168.414062 151.828125 168.4375 C 150.871094 168.625 150.054688 168.707031 149.597656 169.066406 C 149.148438 169.402344 149.113281 169.96875 149.113281 170.300781 C 149.113281 170.660156 149.117188 170.871094 149.066406 170.875 C 149.011719 170.875 148.921875 170.703125 148.828125 170.34375 C 148.78125 170.148438 148.746094 169.90625 148.773438 169.605469 C 148.808594 169.3125 148.945312 168.945312 149.242188 168.660156 C 149.84375 168.082031 150.761719 167.945312 151.644531 167.699219 C 151.761719 167.667969 151.867188 167.625 151.980469 167.597656 L 151.996094 167.597656 L 152 167.589844 L 152.089844 167.542969 L 152.253906 167.460938 C 152.328125 167.386719 152.339844 167.375 152.410156 167.292969 C 152.476562 167.203125 152.546875 167.121094 152.632812 166.992188 C 152.703125 166.890625 152.832031 166.753906 152.941406 166.628906 C 153.078125 166.523438 153.21875 166.386719 153.382812 166.324219 C 153.707031 166.148438 154.03125 166.007812 154.371094 165.949219 L 154.382812 165.851562 L 154.417969 165.851562 C 154.839844 165.851562 155.257812 166.09375 155.582031 166.3125 C 155.902344 166.515625 156.167969 166.808594 156.390625 166.964844 C 156.507812 167.046875 156.59375 167.09375 156.664062 167.121094 C 156.832031 167.15625 157.007812 167.199219 157.183594 167.230469 C 157.527344 167.296875 157.875 167.367188 158.234375 167.441406 C 159.660156 167.699219 161.164062 168.046875 162.722656 168.292969 C 163.835938 168.441406 164.933594 168.597656 165.980469 168.742188 C 166.515625 168.824219 167.023438 168.890625 167.535156 168.964844 C 168.046875 169.035156 168.550781 169.0625 169.039062 169.109375 C 170.015625 169.203125 170.945312 169.285156 171.8125 169.367188 C 172.6875 169.449219 173.492188 169.546875 174.234375 169.566406 " fill-opacity="1" fill-rule="nonzero"/><path fill="#ffde59" d="M 177.238281 111.410156 C 177.441406 111.804688 177.394531 112.289062 177.214844 112.65625 C 176.820312 113.40625 176.148438 113.621094 175.644531 113.785156 C 175.378906 113.835938 175.125 113.894531 174.894531 113.910156 C 174.65625 113.910156 174.445312 113.902344 174.253906 113.894531 C 173.484375 113.816406 173.042969 113.636719 173.054688 113.492188 C 173.070312 113.332031 173.53125 113.242188 174.210938 113.125 C 174.378906 113.085938 174.558594 113.046875 174.757812 113.003906 C 174.949219 112.960938 175.132812 112.882812 175.335938 112.824219 C 175.703125 112.671875 176.117188 112.445312 176.226562 112.175781 C 176.324219 111.929688 176.285156 111.75 176.039062 111.636719 C 175.976562 111.628906 175.921875 111.574219 175.84375 111.585938 C 175.765625 111.585938 175.691406 111.582031 175.609375 111.574219 C 175.457031 111.621094 175.289062 111.613281 175.152344 111.675781 C 175.007812 111.738281 174.878906 111.773438 174.75 111.820312 C 174.621094 111.894531 174.503906 111.949219 174.40625 111.988281 C 174.210938 112.070312 174.082031 112.089844 174.027344 112.035156 C 173.976562 111.976562 174.015625 111.847656 174.132812 111.664062 C 174.183594 111.574219 174.261719 111.472656 174.355469 111.351562 C 174.464844 111.242188 174.621094 111.117188 174.785156 110.988281 C 174.960938 110.851562 175.195312 110.785156 175.4375 110.675781 C 175.710938 110.632812 176.007812 110.582031 176.355469 110.683594 C 176.527344 110.710938 176.691406 110.832031 176.855469 110.933594 C 176.996094 111.0625 177.160156 111.214844 177.238281 111.410156 " fill-opacity="1" fill-rule="nonzero"/><path fill="#ffde59" d="M 172.589844 120.347656 C 173.714844 120.5 174.714844 120.800781 174.675781 121.113281 C 174.640625 121.398438 173.679688 121.597656 172.414062 121.421875 C 171.777344 121.316406 171.214844 121.097656 170.832031 120.792969 C 170.496094 120.511719 170.398438 120.261719 170.460938 120.136719 C 170.542969 119.996094 170.832031 120.046875 171.203125 120.117188 C 171.566406 120.179688 172.050781 120.253906 172.589844 120.347656 " fill-opacity="1" fill-rule="nonzero"/><path fill="#ffde59" d="M 172.570312 115.761719 C 172.667969 116.046875 171.753906 116.566406 170.523438 116.917969 C 169.304688 117.203125 168.265625 117.1875 168.195312 116.898438 C 168.121094 116.605469 169.054688 116.136719 170.269531 115.855469 C 171.441406 115.515625 172.472656 115.476562 172.570312 115.761719 " fill-opacity="1" fill-rule="nonzero"/><path fill="#ffde59" d="M 172.570312 109.601562 C 172.632812 109.90625 171.714844 110.347656 170.585938 110.75 C 169.523438 111.144531 168.5 111.507812 168.355469 111.222656 C 168.230469 110.96875 168.910156 110.21875 170.203125 109.71875 C 171.4375 109.285156 172.511719 109.316406 172.570312 109.601562 " fill-opacity="1" fill-rule="nonzero"/><path fill="#ffde59" d="M 167.058594 114.789062 C 167.175781 114.847656 167.179688 115.25 166.871094 115.820312 C 166.722656 116.101562 166.472656 116.414062 166.097656 116.699219 C 165.703125 116.964844 165.144531 117.148438 164.574219 117.078125 C 164.355469 117.039062 164.152344 116.972656 163.953125 116.917969 L 163.511719 116.789062 L 163.601562 116.34375 C 163.695312 115.917969 163.792969 115.480469 164.109375 115.140625 C 164.40625 114.796875 164.796875 114.644531 165.0625 114.621094 C 165.621094 114.554688 165.894531 114.664062 165.921875 114.789062 C 165.964844 114.925781 165.652344 115.085938 165.289062 115.296875 C 165.097656 115.398438 164.960938 115.542969 164.867188 115.710938 C 164.820312 115.78125 164.789062 115.878906 164.765625 115.992188 C 165.054688 116.015625 165.316406 115.949219 165.566406 115.847656 C 165.828125 115.699219 166.058594 115.523438 166.261719 115.347656 C 166.65625 114.992188 166.910156 114.710938 167.058594 114.789062 " fill-opacity="1" fill-rule="nonzero"/><path fill="#ffde59" d="M 164.949219 112.519531 C 165.082031 112.792969 164.289062 113.488281 163.179688 114.082031 C 162.074219 114.734375 161.054688 115.046875 160.898438 114.789062 C 160.742188 114.527344 161.515625 113.792969 162.625 113.132812 C 163.777344 112.519531 164.820312 112.25 164.949219 112.519531 " fill-opacity="1" fill-rule="nonzero"/><path fill="#ffde59" d="M 160.414062 118.191406 C 160.605469 118.441406 160.210938 119.042969 159.6875 119.632812 C 159.246094 120.109375 158.746094 120.777344 158.46875 120.625 C 158.226562 120.496094 158.15625 119.777344 158.847656 118.917969 C 159.488281 118.207031 160.238281 117.964844 160.414062 118.191406 " fill-opacity="1" fill-rule="nonzero"/><path fill="#ffde59" d="M 158.378906 154.515625 C 158.550781 154.570312 158.636719 154.613281 158.628906 154.664062 C 158.625 154.71875 158.527344 154.765625 158.363281 154.800781 C 158.203125 154.828125 157.976562 154.902344 157.714844 154.992188 C 157.480469 155.125 157.203125 155.277344 157.046875 155.585938 C 156.894531 155.890625 156.8125 156.300781 156.828125 156.773438 L 156.855469 157.605469 L 156.125 157.183594 C 155.777344 156.972656 155.574219 156.765625 155.335938 156.542969 C 155.117188 156.324219 154.878906 156.097656 154.648438 155.863281 C 154.1875 155.410156 153.714844 154.929688 153.199219 154.515625 C 152.632812 154.050781 151.980469 153.738281 151.652344 153.882812 C 151.292969 154.003906 150.972656 154.601562 150.789062 155.121094 L 150.625 155.585938 L 150.207031 155.410156 C 149.796875 155.25 149.421875 155.148438 149.085938 155.132812 C 148.761719 155.140625 148.460938 155.175781 148.238281 155.289062 C 147.792969 155.460938 147.507812 155.722656 147.445312 155.636719 C 147.398438 155.582031 147.460938 155.261719 147.976562 154.839844 C 148.214844 154.632812 148.589844 154.484375 149.039062 154.40625 C 149.359375 154.367188 149.699219 154.386719 150.054688 154.460938 C 150.117188 154.261719 150.195312 154.0625 150.304688 153.863281 C 150.484375 153.527344 150.769531 153.128906 151.273438 152.910156 C 151.777344 152.695312 152.339844 152.796875 152.753906 152.96875 C 153.175781 153.148438 153.539062 153.398438 153.878906 153.664062 C 154.472656 154.140625 154.960938 154.652344 155.40625 155.140625 C 155.628906 155.378906 155.839844 155.609375 156.050781 155.839844 C 156.050781 155.847656 156.058594 155.855469 156.0625 155.855469 C 156.144531 155.597656 156.261719 155.359375 156.425781 155.152344 C 156.75 154.707031 157.230469 154.542969 157.574219 154.464844 C 157.929688 154.433594 158.203125 154.453125 158.378906 154.515625 " fill-opacity="1" fill-rule="nonzero"/><path fill="#ffde59" d="M 156.683594 118.84375 C 156.8125 118.867188 156.9375 119.335938 156.664062 120.097656 C 156.519531 120.464844 156.222656 120.96875 155.589844 121.199219 C 154.960938 121.441406 154.148438 121.234375 153.660156 120.675781 C 153.410156 120.402344 153.246094 120.042969 153.214844 119.671875 C 153.175781 119.296875 153.292969 118.933594 153.464844 118.667969 C 153.8125 118.128906 154.28125 117.914062 154.636719 117.769531 C 155.390625 117.503906 155.828125 117.578125 155.875 117.707031 C 155.925781 117.855469 155.5 118.082031 154.992188 118.449219 C 154.746094 118.640625 154.457031 118.886719 154.34375 119.160156 C 154.214844 119.429688 154.261719 119.695312 154.480469 119.953125 C 154.703125 120.199219 155.03125 120.300781 155.28125 120.242188 C 155.554688 120.199219 155.804688 119.96875 155.984375 119.730469 C 156.347656 119.238281 156.519531 118.804688 156.683594 118.84375 " fill-opacity="1" fill-rule="nonzero"/><g clip-path="url(#66ceaf747d)"><path fill="#ffde59" d="M 253.988281 78.144531 C 253.34375 77.890625 252.703125 77.617188 252.058594 77.367188 C 245.828125 74.960938 239.601562 72.554688 233.371094 70.148438 C 227.992188 68.074219 222.609375 66 217.226562 63.929688 C 211.605469 61.757812 205.984375 59.582031 200.367188 57.402344 C 196.503906 55.910156 192.640625 54.414062 188.777344 52.921875 C 188.148438 52.65625 187.515625 52.644531 186.875 52.886719 C 181.472656 54.960938 176.066406 57.03125 170.660156 59.097656 C 165.316406 61.148438 159.96875 63.195312 154.625 65.25 C 154.234375 65.394531 153.847656 65.382812 153.464844 65.214844 C 152.535156 64.890625 151.550781 64.507812 150.589844 64.515625 C 146.148438 64.554688 142.730469 66.5 140.414062 70.328125 C 140.265625 70.589844 140.058594 70.789062 139.789062 70.917969 C 133.558594 73.324219 127.324219 75.714844 121.085938 78.089844 C 120.261719 78.40625 119.765625 79.015625 119.769531 79.769531 C 119.777344 80.617188 120.25 81.136719 121.007812 81.425781 C 122.039062 81.824219 123.078125 82.203125 124.113281 82.59375 C 128.269531 84.167969 132.429688 85.734375 136.589844 87.304688 C 136.769531 87.34375 136.917969 87.441406 137.023438 87.59375 C 137.132812 87.746094 137.175781 87.914062 137.148438 88.101562 C 137.121094 90.359375 137.148438 92.617188 137.121094 94.875 C 137.121094 94.933594 137.113281 94.988281 137.101562 95.046875 C 136.65625 95.308594 136.308594 95.660156 136.050781 96.109375 C 135.792969 96.554688 135.660156 97.035156 135.65625 97.550781 C 135.65625 98.167969 135.839844 98.730469 136.203125 99.230469 C 136.195312 99.257812 136.1875 99.285156 136.175781 99.3125 C 135.4375 101.023438 135.011719 102.808594 134.90625 104.671875 C 134.671875 107.828125 134.546875 110.996094 134.398438 114.160156 C 134.355469 115.136719 134.371094 116.117188 134.398438 117.09375 C 134.425781 117.9375 134.875 118.289062 135.695312 118.191406 C 136.125 118.136719 136.558594 118.105469 136.992188 118.101562 C 137.84375 118.101562 138.097656 117.878906 138.183594 117.011719 C 138.226562 116.578125 138.28125 116.144531 138.332031 115.710938 L 138.5 115.710938 C 138.570312 116.171875 138.636719 116.632812 138.710938 117.09375 C 138.84375 117.875 139.109375 118.105469 139.882812 118.105469 C 140.578125 118.105469 141.269531 118.101562 141.964844 118.078125 C 142.648438 118.058594 142.847656 117.851562 142.855469 117.160156 C 142.859375 116.335938 142.835938 115.511719 142.84375 114.6875 C 142.886719 110.84375 142.949219 107 142.980469 103.15625 C 142.992188 101.828125 142.882812 100.492188 142.28125 99.28125 C 142.121094 98.960938 141.945312 98.652344 141.785156 98.335938 C 141.859375 98.078125 141.898438 97.816406 141.898438 97.550781 C 141.894531 97.070312 141.777344 96.621094 141.554688 96.195312 C 141.328125 95.773438 141.015625 95.425781 140.617188 95.15625 C 140.570312 94.660156 140.5625 94.164062 140.597656 93.664062 C 140.621094 92.296875 140.589844 90.929688 140.582031 89.5625 C 140.582031 89.347656 140.582031 89.136719 140.582031 88.832031 C 141.851562 89.308594 143.03125 89.789062 144.242188 90.183594 C 144.863281 90.382812 145.050781 90.6875 145.039062 91.34375 C 144.902344 98.378906 144.785156 105.410156 144.6875 112.445312 C 144.65625 114.4375 146.234375 115.417969 147.988281 114.527344 C 151.183594 112.941406 154.492188 111.644531 157.917969 110.644531 C 165.832031 108.253906 173.949219 107.019531 182.1875 106.550781 C 190.128906 106.070312 198.03125 106.425781 205.894531 107.613281 C 213.242188 108.746094 220.386719 110.558594 227.046875 113.996094 C 228.859375 114.929688 230.390625 113.972656 230.449219 111.945312 C 230.457031 111.769531 230.449219 111.597656 230.449219 111.421875 C 230.394531 104.667969 230.347656 97.914062 230.273438 91.164062 C 230.265625 90.59375 230.433594 90.332031 230.972656 90.132812 C 233.964844 89.03125 236.941406 87.890625 239.917969 86.753906 C 244.597656 84.972656 249.277344 83.1875 253.957031 81.398438 C 254.808594 81.070312 255.222656 80.503906 255.199219 79.753906 C 255.175781 78.941406 254.71875 78.4375 253.988281 78.144531 Z M 137.144531 83.882812 C 133.570312 82.542969 129.964844 81.191406 126.207031 79.78125 C 130.429688 78.164062 134.507812 76.597656 138.5625 75.042969 C 138.089844 77.988281 137.617188 80.921875 137.144531 83.882812 Z M 226.253906 109.003906 C 225.5625 108.722656 224.984375 108.492188 224.410156 108.253906 C 219.25 106.109375 213.867188 104.78125 208.382812 103.824219 C 199.375 102.253906 190.300781 101.898438 181.191406 102.460938 C 171.835938 103.039062 162.65625 104.597656 153.769531 107.648438 C 152.351562 108.132812 150.976562 108.726562 149.582031 109.269531 C 149.386719 109.347656 149.191406 109.425781 148.933594 109.523438 C 148.90625 109.34375 148.890625 109.160156 148.882812 108.976562 C 148.984375 102.636719 149.09375 96.296875 149.179688 89.957031 C 149.152344 89.710938 149.203125 89.480469 149.339844 89.269531 C 149.472656 89.058594 149.660156 88.910156 149.894531 88.832031 C 154.898438 86.554688 160.140625 85.03125 165.5 83.894531 C 174.078125 82.101562 182.75 81.3125 191.511719 81.527344 C 199.761719 81.695312 207.921875 82.621094 215.902344 84.816406 C 219.226562 85.691406 222.445312 86.855469 225.554688 88.316406 C 225.734375 88.375 225.875 88.484375 225.976562 88.636719 C 226.082031 88.792969 226.128906 88.960938 226.117188 89.148438 C 226.152344 95.574219 226.199219 102.003906 226.253906 108.429688 C 226.253906 108.578125 226.253906 108.730469 226.253906 109.003906 Z M 230.25 86.789062 C 229.824219 85.660156 228.792969 85.308594 227.871094 84.859375 C 222.289062 82.152344 216.386719 80.449219 210.308594 79.289062 C 200.738281 77.460938 191.089844 77.007812 181.386719 77.605469 C 181.386719 77.605469 167.664062 78.441406 153.480469 82.964844 C 150.980469 83.761719 147.433594 85.449219 146.84375 85.847656 C 146.507812 86.074219 146.144531 86.257812 145.800781 86.472656 C 145.632812 86.601562 145.445312 86.691406 145.242188 86.75 C 144.914062 86.800781 144.597656 86.75 144.300781 86.59375 C 143.21875 86.144531 142.109375 85.773438 141.027344 85.328125 C 140.808594 85.214844 140.683594 85.035156 140.652344 84.789062 C 140.871094 81.050781 141.4375 77.371094 142.636719 73.8125 C 142.75 73.554688 142.941406 73.375 143.199219 73.273438 C 149.777344 70.742188 156.355469 68.222656 162.9375 65.710938 C 170.933594 62.652344 178.925781 59.582031 186.917969 56.503906 C 187.476562 56.265625 188.03125 56.265625 188.589844 56.503906 C 201.546875 61.523438 214.511719 66.53125 227.476562 71.523438 C 234.390625 74.195312 241.304688 76.871094 248.214844 79.554688 C 248.355469 79.609375 248.484375 79.675781 248.714844 79.785156 C 242.515625 82.136719 236.40625 84.453125 230.25 86.789062 Z M 230.25 86.789062 " fill-opacity="1" fill-rule="nonzero"/></g><g fill="#ffde59" fill-opacity="1"><g transform="translate(36.756587, 266.845136)"><g><path d="M 41.421875 -25.6875 C 41.421875 -23.6875 41.320312 -21.625 41.125 -19.5 C 40.9375 -17.382812 40.597656 -15.328125 40.109375 -13.328125 C 39.617188 -11.328125 38.945312 -9.4375 38.09375 -7.65625 C 37.238281 -5.875 36.148438 -4.3125 34.828125 -2.96875 C 33.515625 -1.625 31.929688 -0.5625 30.078125 0.21875 C 28.222656 1 26.050781 1.390625 23.5625 1.390625 C 19.90625 1.390625 16.722656 0.535156 14.015625 -1.171875 C 11.304688 -2.878906 9.046875 -5.0625 7.234375 -7.71875 C 5.429688 -10.382812 4.09375 -13.363281 3.21875 -16.65625 C 2.34375 -19.945312 1.90625 -23.203125 1.90625 -26.421875 C 1.90625 -26.765625 1.90625 -27.082031 1.90625 -27.375 C 1.90625 -27.664062 1.925781 -27.9375 1.96875 -28.1875 C 2.019531 -29.207031 2.109375 -30.59375 2.234375 -32.34375 C 2.359375 -34.101562 2.566406 -35.984375 2.859375 -37.984375 C 3.148438 -39.984375 3.523438 -42.03125 3.984375 -44.125 C 4.453125 -46.226562 5.0625 -48.109375 5.8125 -49.765625 C 6.570312 -51.429688 7.488281 -52.800781 8.5625 -53.875 C 9.632812 -54.945312 10.90625 -55.484375 12.375 -55.484375 C 13.445312 -55.484375 14.347656 -55.164062 15.078125 -54.53125 C 15.804688 -53.894531 16.398438 -53.097656 16.859375 -52.140625 C 17.328125 -51.191406 17.660156 -50.191406 17.859375 -49.140625 C 18.054688 -48.097656 18.15625 -47.140625 18.15625 -46.265625 C 18.15625 -44.941406 18.019531 -43.609375 17.75 -42.265625 C 17.476562 -40.929688 17.222656 -39.601562 16.984375 -38.28125 C 16.585938 -36.1875 16.265625 -34.085938 16.015625 -31.984375 C 15.773438 -29.890625 15.65625 -27.742188 15.65625 -25.546875 C 15.65625 -24.421875 15.71875 -23.050781 15.84375 -21.4375 C 15.96875 -19.832031 16.273438 -18.285156 16.765625 -16.796875 C 17.253906 -15.304688 17.945312 -14.035156 18.84375 -12.984375 C 19.75 -11.941406 20.984375 -11.421875 22.546875 -11.421875 C 24.054688 -11.421875 25.257812 -11.929688 26.15625 -12.953125 C 27.0625 -13.984375 27.734375 -15.203125 28.171875 -16.609375 C 28.617188 -18.023438 28.898438 -19.515625 29.015625 -21.078125 C 29.140625 -22.640625 29.203125 -23.984375 29.203125 -25.109375 C 29.203125 -28.328125 28.929688 -31.507812 28.390625 -34.65625 C 27.859375 -37.800781 27.15625 -40.9375 26.28125 -44.0625 C 26.03125 -44.894531 25.820312 -45.722656 25.65625 -46.546875 C 25.488281 -47.378906 25.40625 -48.210938 25.40625 -49.046875 C 25.40625 -50.410156 25.804688 -51.601562 26.609375 -52.625 C 27.410156 -53.65625 28.546875 -54.171875 30.015625 -54.171875 C 31.234375 -54.171875 32.363281 -53.691406 33.40625 -52.734375 C 34.457031 -51.785156 35.398438 -50.539062 36.234375 -49 C 37.066406 -47.46875 37.785156 -45.75 38.390625 -43.84375 C 39.003906 -41.9375 39.53125 -40.046875 39.96875 -38.171875 C 40.40625 -36.296875 40.734375 -34.503906 40.953125 -32.796875 C 41.171875 -31.085938 41.304688 -29.695312 41.359375 -28.625 C 41.398438 -28.132812 41.421875 -27.65625 41.421875 -27.1875 C 41.421875 -26.726562 41.421875 -26.226562 41.421875 -25.6875 Z M 41.421875 -25.6875 "/></g></g><g transform="translate(80.816551, 266.845136)"><g><path d="M 44.796875 -31.40625 C 44.796875 -30.332031 44.742188 -28.804688 44.640625 -26.828125 C 44.546875 -24.847656 44.363281 -22.675781 44.09375 -20.3125 C 43.832031 -17.945312 43.457031 -15.53125 42.96875 -13.0625 C 42.476562 -10.601562 41.84375 -8.367188 41.0625 -6.359375 C 40.28125 -4.359375 39.328125 -2.710938 38.203125 -1.421875 C 37.085938 -0.128906 35.75 0.515625 34.1875 0.515625 C 32.71875 0.515625 31.375 0.0859375 30.15625 -0.765625 C 28.9375 -1.617188 27.835938 -2.664062 26.859375 -3.90625 C 25.890625 -5.15625 25.035156 -6.488281 24.296875 -7.90625 C 23.566406 -9.320312 22.957031 -10.613281 22.46875 -11.78125 C 21.445312 -14.269531 20.421875 -16.722656 19.390625 -19.140625 C 18.367188 -21.554688 17.394531 -24.007812 16.46875 -26.5 L 16.46875 -24.453125 C 16.46875 -22.347656 16.453125 -20.257812 16.421875 -18.1875 C 16.398438 -16.113281 16.242188 -14.050781 15.953125 -12 C 15.859375 -11.175781 15.75 -10.210938 15.625 -9.109375 C 15.5 -8.015625 15.316406 -6.929688 15.078125 -5.859375 C 14.835938 -4.785156 14.484375 -3.785156 14.015625 -2.859375 C 13.554688 -1.929688 12.9375 -1.25 12.15625 -0.8125 C 11.707031 -0.5625 11.300781 -0.410156 10.9375 -0.359375 C 10.570312 -0.316406 10.171875 -0.242188 9.734375 -0.140625 L 9.515625 -0.140625 C 8.390625 -0.140625 7.4375 -0.519531 6.65625 -1.28125 C 5.875 -2.039062 5.210938 -3.015625 4.671875 -4.203125 C 4.140625 -5.398438 3.710938 -6.742188 3.390625 -8.234375 C 3.078125 -9.722656 2.835938 -11.1875 2.671875 -12.625 C 2.503906 -14.0625 2.394531 -15.390625 2.34375 -16.609375 C 2.289062 -17.835938 2.265625 -18.816406 2.265625 -19.546875 C 2.265625 -20.671875 2.3125 -22.316406 2.40625 -24.484375 C 2.507812 -26.648438 2.71875 -29.050781 3.03125 -31.6875 C 3.351562 -34.320312 3.769531 -37.03125 4.28125 -39.8125 C 4.789062 -42.59375 5.460938 -45.117188 6.296875 -47.390625 C 7.128906 -49.660156 8.128906 -51.515625 9.296875 -52.953125 C 10.460938 -54.390625 11.828125 -55.109375 13.390625 -55.109375 C 14.898438 -55.109375 16.253906 -54.523438 17.453125 -53.359375 C 18.648438 -52.191406 19.710938 -50.800781 20.640625 -49.1875 C 21.566406 -47.570312 22.347656 -45.882812 22.984375 -44.125 C 23.617188 -42.375 24.15625 -40.914062 24.59375 -39.75 C 25.425781 -37.457031 26.234375 -35.175781 27.015625 -32.90625 C 27.796875 -30.632812 28.550781 -28.328125 29.28125 -25.984375 C 29.332031 -25.890625 29.429688 -25.617188 29.578125 -25.171875 C 29.722656 -24.734375 29.890625 -24.25 30.078125 -23.71875 C 30.273438 -23.132812 30.519531 -22.472656 30.8125 -21.734375 C 30.8125 -22.367188 30.800781 -22.820312 30.78125 -23.09375 C 30.757812 -23.363281 30.75 -23.609375 30.75 -23.828125 C 30.75 -24.046875 30.75 -24.320312 30.75 -24.65625 C 30.75 -25 30.75 -25.539062 30.75 -26.28125 C 30.695312 -27.882812 30.65625 -29.492188 30.625 -31.109375 C 30.601562 -32.722656 30.59375 -34.304688 30.59375 -35.859375 C 30.59375 -36.546875 30.601562 -37.5 30.625 -38.71875 C 30.65625 -39.9375 30.726562 -41.238281 30.84375 -42.625 C 30.96875 -44.019531 31.148438 -45.425781 31.390625 -46.84375 C 31.640625 -48.257812 31.992188 -49.539062 32.453125 -50.6875 C 32.921875 -51.832031 33.507812 -52.769531 34.21875 -53.5 C 34.925781 -54.238281 35.789062 -54.609375 36.8125 -54.609375 C 38.03125 -54.609375 39.078125 -54.144531 39.953125 -53.21875 C 40.835938 -52.289062 41.570312 -51.101562 42.15625 -49.65625 C 42.75 -48.21875 43.210938 -46.609375 43.546875 -44.828125 C 43.890625 -43.046875 44.160156 -41.300781 44.359375 -39.59375 C 44.554688 -37.882812 44.675781 -36.296875 44.71875 -34.828125 C 44.769531 -33.367188 44.796875 -32.226562 44.796875 -31.40625 Z M 44.796875 -31.40625 "/></g></g><g transform="translate(128.243222, 266.845136)"><g><path d="M 27.515625 -49.703125 C 27.515625 -48.773438 27.304688 -47.941406 26.890625 -47.203125 C 26.484375 -46.472656 25.9375 -45.851562 25.25 -45.34375 C 24.570312 -44.832031 23.816406 -44.40625 22.984375 -44.0625 C 22.148438 -43.71875 21.34375 -43.472656 20.5625 -43.328125 C 20.46875 -37.816406 20.257812 -32.5 19.9375 -27.375 C 19.625 -22.25 19.128906 -16.953125 18.453125 -11.484375 L 18.890625 -11.484375 C 19.671875 -11.484375 20.4375 -11.398438 21.1875 -11.234375 C 21.945312 -11.066406 22.628906 -10.773438 23.234375 -10.359375 C 23.847656 -9.941406 24.335938 -9.425781 24.703125 -8.8125 C 25.066406 -8.207031 25.25 -7.46875 25.25 -6.59375 C 25.25 -5.46875 24.894531 -4.488281 24.1875 -3.65625 C 23.476562 -2.832031 22.550781 -2.125 21.40625 -1.53125 C 20.257812 -0.945312 18.976562 -0.457031 17.5625 -0.0625 C 16.144531 0.320312 14.726562 0.625 13.3125 0.84375 C 11.90625 1.0625 10.566406 1.21875 9.296875 1.3125 C 8.023438 1.414062 7 1.46875 6.21875 1.46875 C 5.632812 1.46875 4.914062 1.441406 4.0625 1.390625 C 3.207031 1.335938 2.398438 1.1875 1.640625 0.9375 C 0.890625 0.695312 0.25 0.335938 -0.28125 -0.140625 C -0.820312 -0.628906 -1.09375 -1.289062 -1.09375 -2.125 C -1.09375 -3.144531 -0.882812 -4.054688 -0.46875 -4.859375 C -0.0625 -5.671875 0.484375 -6.394531 1.171875 -7.03125 C 1.859375 -7.664062 2.625 -8.175781 3.46875 -8.5625 C 4.320312 -8.957031 5.191406 -9.25 6.078125 -9.4375 C 6.421875 -12.125 6.738281 -14.796875 7.03125 -17.453125 C 7.320312 -20.117188 7.515625 -22.816406 7.609375 -25.546875 C 7.710938 -28.328125 7.8125 -31.070312 7.90625 -33.78125 C 8 -36.488281 8.097656 -39.207031 8.203125 -41.9375 C 7.859375 -41.894531 7.539062 -41.859375 7.25 -41.828125 C 6.957031 -41.804688 6.6875 -41.796875 6.4375 -41.796875 C 5.757812 -41.796875 5.03125 -41.867188 4.25 -42.015625 C 3.46875 -42.160156 2.734375 -42.414062 2.046875 -42.78125 C 1.367188 -43.144531 0.796875 -43.59375 0.328125 -44.125 C -0.128906 -44.664062 -0.359375 -45.351562 -0.359375 -46.1875 C -0.359375 -47.84375 0.332031 -49.207031 1.71875 -50.28125 C 3.113281 -51.351562 4.773438 -52.179688 6.703125 -52.765625 C 8.628906 -53.359375 10.59375 -53.765625 12.59375 -53.984375 C 14.59375 -54.203125 16.203125 -54.3125 17.421875 -54.3125 C 18.109375 -54.3125 19.007812 -54.257812 20.125 -54.15625 C 21.25 -54.0625 22.359375 -53.84375 23.453125 -53.5 C 24.554688 -53.164062 25.507812 -52.703125 26.3125 -52.109375 C 27.113281 -51.523438 27.515625 -50.722656 27.515625 -49.703125 Z M 27.515625 -49.703125 "/></g></g><g transform="translate(154.591373, 266.845136)"><g><path d="M 32.140625 -18.671875 C 32.140625 -18.222656 31.785156 -17.863281 31.078125 -17.59375 C 30.367188 -17.332031 29.453125 -17.101562 28.328125 -16.90625 C 27.203125 -16.707031 25.96875 -16.546875 24.625 -16.421875 C 23.289062 -16.304688 22.007812 -16.222656 20.78125 -16.171875 C 19.5625 -16.128906 18.460938 -16.09375 17.484375 -16.0625 C 16.515625 -16.039062 15.832031 -16.03125 15.4375 -16.03125 C 14.957031 -16.03125 13.957031 -16.039062 12.4375 -16.0625 C 10.925781 -16.09375 9.351562 -16.179688 7.71875 -16.328125 C 6.082031 -16.472656 4.628906 -16.726562 3.359375 -17.09375 C 2.097656 -17.457031 1.46875 -17.984375 1.46875 -18.671875 C 1.46875 -19.492188 2.160156 -20.148438 3.546875 -20.640625 C 4.941406 -21.128906 6.550781 -21.484375 8.375 -21.703125 C 10.207031 -21.921875 12.015625 -22.050781 13.796875 -22.09375 C 15.578125 -22.144531 16.882812 -22.171875 17.71875 -22.171875 C 18.207031 -22.171875 18.898438 -22.144531 19.796875 -22.09375 C 20.703125 -22.050781 21.675781 -21.96875 22.71875 -21.84375 C 23.769531 -21.726562 24.859375 -21.570312 25.984375 -21.375 C 27.109375 -21.175781 28.117188 -20.953125 29.015625 -20.703125 C 29.921875 -20.460938 30.664062 -20.171875 31.25 -19.828125 C 31.84375 -19.492188 32.140625 -19.109375 32.140625 -18.671875 Z M 32.140625 -18.671875 "/></g></g><g transform="translate(188.258454, 266.845136)"><g><path d="M 32.0625 -52.84375 C 32.0625 -50.988281 31.425781 -49.304688 30.15625 -47.796875 C 28.882812 -46.285156 27.332031 -44.929688 25.5 -43.734375 C 23.675781 -42.535156 21.765625 -41.5 19.765625 -40.625 C 17.765625 -39.75 16.03125 -39.015625 14.5625 -38.421875 C 14.5625 -37.398438 14.535156 -36.351562 14.484375 -35.28125 C 14.441406 -34.207031 14.367188 -33.132812 14.265625 -32.0625 C 15.828125 -32.84375 17.582031 -33.570312 19.53125 -34.25 C 21.488281 -34.9375 23.347656 -35.28125 25.109375 -35.28125 C 26.523438 -35.28125 27.679688 -34.988281 28.578125 -34.40625 C 29.484375 -33.820312 29.9375 -32.796875 29.9375 -31.328125 C 29.9375 -29.710938 29.363281 -28.269531 28.21875 -27 C 27.070312 -25.738281 25.691406 -24.617188 24.078125 -23.640625 C 22.472656 -22.660156 20.789062 -21.828125 19.03125 -21.140625 C 17.269531 -20.460938 15.78125 -19.929688 14.5625 -19.546875 C 14.5625 -17.929688 14.535156 -16.332031 14.484375 -14.75 C 14.441406 -13.164062 14.367188 -11.59375 14.265625 -10.03125 C 14.222656 -9.25 14.140625 -8.269531 14.015625 -7.09375 C 13.890625 -5.925781 13.644531 -4.789062 13.28125 -3.6875 C 12.914062 -2.59375 12.390625 -1.644531 11.703125 -0.84375 C 11.023438 -0.0390625 10.148438 0.359375 9.078125 0.359375 C 8.054688 0.359375 7.175781 -0.140625 6.4375 -1.140625 C 5.707031 -2.140625 5.085938 -3.414062 4.578125 -4.96875 C 4.066406 -6.53125 3.648438 -8.273438 3.328125 -10.203125 C 3.015625 -12.140625 2.769531 -14.035156 2.59375 -15.890625 C 2.425781 -17.742188 2.328125 -19.445312 2.296875 -21 C 2.273438 -22.5625 2.265625 -23.757812 2.265625 -24.59375 C 2.265625 -25.226562 2.273438 -26.164062 2.296875 -27.40625 C 2.328125 -28.65625 2.351562 -30.035156 2.375 -31.546875 C 2.40625 -33.054688 2.457031 -34.640625 2.53125 -36.296875 C 2.601562 -37.960938 2.6875 -39.539062 2.78125 -41.03125 C 2.875 -42.519531 3.003906 -43.835938 3.171875 -44.984375 C 3.347656 -46.128906 3.5625 -46.96875 3.8125 -47.5 C 4.34375 -48.570312 5.617188 -49.632812 7.640625 -50.6875 C 9.671875 -51.738281 11.929688 -52.664062 14.421875 -53.46875 C 16.910156 -54.269531 19.335938 -54.925781 21.703125 -55.4375 C 24.066406 -55.957031 25.882812 -56.21875 27.15625 -56.21875 C 27.738281 -56.21875 28.3125 -56.179688 28.875 -56.109375 C 29.4375 -56.035156 29.960938 -55.875 30.453125 -55.625 C 30.941406 -55.382812 31.332031 -55.046875 31.625 -54.609375 C 31.914062 -54.171875 32.0625 -53.582031 32.0625 -52.84375 Z M 32.0625 -52.84375 "/></g></g><g transform="translate(218.485638, 266.845136)"><g><path d="M 18.953125 2.421875 C 15.984375 2.421875 13.398438 1.675781 11.203125 0.1875 C 9.003906 -1.300781 7.1875 -3.300781 5.75 -5.8125 C 4.3125 -8.332031 3.238281 -11.25 2.53125 -14.5625 C 1.820312 -17.882812 1.46875 -21.375 1.46875 -25.03125 C 1.46875 -28.445312 1.84375 -31.910156 2.59375 -35.421875 C 3.351562 -38.941406 4.515625 -42.113281 6.078125 -44.9375 C 7.640625 -47.769531 9.613281 -50.085938 12 -51.890625 C 14.394531 -53.703125 17.25 -54.609375 20.5625 -54.609375 C 23.789062 -54.609375 26.488281 -53.738281 28.65625 -52 C 30.820312 -50.269531 32.550781 -48.023438 33.84375 -45.265625 C 35.144531 -42.515625 36.078125 -39.429688 36.640625 -36.015625 C 37.203125 -32.597656 37.484375 -29.179688 37.484375 -25.765625 C 37.484375 -21.960938 37.101562 -18.363281 36.34375 -14.96875 C 35.582031 -11.570312 34.429688 -8.582031 32.890625 -6 C 31.359375 -3.414062 29.429688 -1.367188 27.109375 0.140625 C 24.796875 1.660156 22.078125 2.421875 18.953125 2.421875 Z M 19.84375 -38.421875 C 18.914062 -38.421875 18.117188 -38.054688 17.453125 -37.328125 C 16.796875 -36.597656 16.25 -35.632812 15.8125 -34.4375 C 15.375 -33.238281 15.054688 -31.894531 14.859375 -30.40625 C 14.660156 -28.925781 14.5625 -27.425781 14.5625 -25.90625 C 14.5625 -24.195312 14.671875 -22.488281 14.890625 -20.78125 C 15.109375 -19.070312 15.4375 -17.535156 15.875 -16.171875 C 16.320312 -14.804688 16.875 -13.707031 17.53125 -12.875 C 18.1875 -12.050781 18.976562 -11.640625 19.90625 -11.640625 C 20.976562 -11.640625 21.832031 -12.175781 22.46875 -13.25 C 23.101562 -14.320312 23.601562 -15.613281 23.96875 -17.125 C 24.332031 -18.632812 24.578125 -20.195312 24.703125 -21.8125 C 24.828125 -23.425781 24.890625 -24.769531 24.890625 -25.84375 C 24.890625 -27.15625 24.800781 -28.539062 24.625 -30 C 24.457031 -31.46875 24.175781 -32.820312 23.78125 -34.0625 C 23.394531 -35.3125 22.882812 -36.347656 22.25 -37.171875 C 21.613281 -38.003906 20.8125 -38.421875 19.84375 -38.421875 Z M 19.84375 -38.421875 "/></g></g><g transform="translate(257.861486, 266.845136)"><g><path d="M 18.953125 2.421875 C 15.984375 2.421875 13.398438 1.675781 11.203125 0.1875 C 9.003906 -1.300781 7.1875 -3.300781 5.75 -5.8125 C 4.3125 -8.332031 3.238281 -11.25 2.53125 -14.5625 C 1.820312 -17.882812 1.46875 -21.375 1.46875 -25.03125 C 1.46875 -28.445312 1.84375 -31.910156 2.59375 -35.421875 C 3.351562 -38.941406 4.515625 -42.113281 6.078125 -44.9375 C 7.640625 -47.769531 9.613281 -50.085938 12 -51.890625 C 14.394531 -53.703125 17.25 -54.609375 20.5625 -54.609375 C 23.789062 -54.609375 26.488281 -53.738281 28.65625 -52 C 30.820312 -50.269531 32.550781 -48.023438 33.84375 -45.265625 C 35.144531 -42.515625 36.078125 -39.429688 36.640625 -36.015625 C 37.203125 -32.597656 37.484375 -29.179688 37.484375 -25.765625 C 37.484375 -21.960938 37.101562 -18.363281 36.34375 -14.96875 C 35.582031 -11.570312 34.429688 -8.582031 32.890625 -6 C 31.359375 -3.414062 29.429688 -1.367188 27.109375 0.140625 C 24.796875 1.660156 22.078125 2.421875 18.953125 2.421875 Z M 19.84375 -38.421875 C 18.914062 -38.421875 18.117188 -38.054688 17.453125 -37.328125 C 16.796875 -36.597656 16.25 -35.632812 15.8125 -34.4375 C 15.375 -33.238281 15.054688 -31.894531 14.859375 -30.40625 C 14.660156 -28.925781 14.5625 -27.425781 14.5625 -25.90625 C 14.5625 -24.195312 14.671875 -22.488281 14.890625 -20.78125 C 15.109375 -19.070312 15.4375 -17.535156 15.875 -16.171875 C 16.320312 -14.804688 16.875 -13.707031 17.53125 -12.875 C 18.1875 -12.050781 18.976562 -11.640625 19.90625 -11.640625 C 20.976562 -11.640625 21.832031 -12.175781 22.46875 -13.25 C 23.101562 -14.320312 23.601562 -15.613281 23.96875 -17.125 C 24.332031 -18.632812 24.578125 -20.195312 24.703125 -21.8125 C 24.828125 -23.425781 24.890625 -24.769531 24.890625 -25.84375 C 24.890625 -27.15625 24.800781 -28.539062 24.625 -30 C 24.457031 -31.46875 24.175781 -32.820312 23.78125 -34.0625 C 23.394531 -35.3125 22.882812 -36.347656 22.25 -37.171875 C 21.613281 -38.003906 20.8125 -38.421875 19.84375 -38.421875 Z M 19.84375 -38.421875 "/></g></g><g transform="translate(297.237334, 266.845136)"><g><path d="M 39.890625 -32.9375 C 39.890625 -28.644531 39.007812 -24.507812 37.25 -20.53125 C 35.5 -16.550781 33.144531 -13.023438 30.1875 -9.953125 C 27.238281 -6.878906 23.800781 -4.425781 19.875 -2.59375 C 15.945312 -0.769531 11.8125 0.140625 7.46875 0.140625 L 7.3125 0.140625 C 6.4375 0.140625 5.71875 -0.257812 5.15625 -1.0625 C 4.59375 -1.863281 4.113281 -2.875 3.71875 -4.09375 C 3.332031 -5.3125 3.039062 -6.675781 2.84375 -8.1875 C 2.65625 -9.707031 2.507812 -11.1875 2.40625 -12.625 C 2.3125 -14.0625 2.265625 -15.351562 2.265625 -16.5 C 2.265625 -17.644531 2.265625 -18.515625 2.265625 -19.109375 C 2.265625 -20.765625 2.289062 -22.410156 2.34375 -24.046875 C 2.394531 -25.679688 2.46875 -27.328125 2.5625 -28.984375 C 2.5625 -29.523438 2.597656 -30.316406 2.671875 -31.359375 C 2.742188 -32.410156 2.828125 -33.59375 2.921875 -34.90625 C 3.023438 -36.226562 3.148438 -37.609375 3.296875 -39.046875 C 3.441406 -40.484375 3.597656 -41.820312 3.765625 -43.0625 C 3.941406 -44.3125 4.113281 -45.410156 4.28125 -46.359375 C 4.445312 -47.316406 4.65625 -47.96875 4.90625 -48.3125 C 5.539062 -49.382812 6.515625 -50.332031 7.828125 -51.15625 C 9.148438 -51.988281 10.578125 -52.671875 12.109375 -53.203125 C 13.648438 -53.742188 15.210938 -54.148438 16.796875 -54.421875 C 18.378906 -54.691406 19.757812 -54.828125 20.9375 -54.828125 C 24.15625 -54.828125 26.945312 -54.226562 29.3125 -53.03125 C 31.675781 -51.832031 33.648438 -50.21875 35.234375 -48.1875 C 36.828125 -46.164062 38 -43.835938 38.75 -41.203125 C 39.507812 -38.566406 39.890625 -35.8125 39.890625 -32.9375 Z M 27.59375 -30.8125 C 27.59375 -31.882812 27.394531 -32.984375 27 -34.109375 C 26.613281 -35.234375 26.066406 -36.257812 25.359375 -37.1875 C 24.648438 -38.113281 23.796875 -38.859375 22.796875 -39.421875 C 21.796875 -39.984375 20.6875 -40.265625 19.46875 -40.265625 C 18.445312 -40.265625 17.398438 -40.019531 16.328125 -39.53125 C 16.078125 -39.382812 15.851562 -38.929688 15.65625 -38.171875 C 15.46875 -37.410156 15.3125 -36.492188 15.1875 -35.421875 C 15.0625 -34.347656 14.953125 -33.175781 14.859375 -31.90625 C 14.765625 -30.644531 14.703125 -29.4375 14.671875 -28.28125 C 14.648438 -27.132812 14.625 -26.125 14.59375 -25.25 C 14.570312 -24.375 14.5625 -23.789062 14.5625 -23.5 C 14.5625 -23.007812 14.5625 -22.285156 14.5625 -21.328125 C 14.5625 -20.378906 14.597656 -19.441406 14.671875 -18.515625 C 14.742188 -17.585938 14.828125 -16.78125 14.921875 -16.09375 C 15.023438 -15.414062 15.195312 -15.078125 15.4375 -15.078125 C 16.90625 -15.078125 18.359375 -15.648438 19.796875 -16.796875 C 21.234375 -17.941406 22.535156 -19.34375 23.703125 -21 C 24.878906 -22.664062 25.820312 -24.398438 26.53125 -26.203125 C 27.238281 -28.003906 27.59375 -29.539062 27.59375 -30.8125 Z M 27.59375 -30.8125 "/></g></g></g></svg>